<?xml version="1.0" encoding="UTF-8" standalone="no"?>
<svg xmlns:rdf="http://www.w3.org/1999/02/22-rdf-syntax-ns#" xmlns="http://www.w3.org/2000/svg" height="100" width="286" version="1.1" xmlns:cc="http://creativecommons.org/ns#" xmlns:dc="http://purl.org/dc/elements/1.1/">
 <path d="m13.5416 30.243c-2.33753 0.01845-3.90561 0.50496-4.69785 1.43467-0.792247 0.929804-1.1815 2.77044-1.1815 5.51365v23.4611l11.7587-6.86393v13.756h-5.87935v-6.21692l-5.87935 3.43196v2.75682c0 2.8169 0.389249 4.66777 1.1815 5.56991 0.792246 0.902141 2.36033 1.35028 4.69785 1.35028l5.87935 0.02809c2.33751-0.01836 3.90559-0.504915 4.69785-1.43467 0.792229-0.929759 1.18148-2.74226 1.1815-5.48552v-24.1644l-11.7587 6.92019v-13.109h5.87935v6.18879l5.87935-3.43196v-2.72869c-0.000018-2.81686-0.389268-4.69586-1.1815-5.59804-0.792264-0.902095-2.36034-1.35024-4.69785-1.35028l-5.87935-0.02809zm25.8804 0.02809v6.94832l6.4701-0.02809v37.2734h5.90748v-37.2453h6.69514v-6.94832h-19.0727zm38.483 0c-2.35321 0.000045-3.94159 0.457899-4.72598 1.37841-0.784405 0.920595-1.15336 2.78016-1.15336 5.54178v37.2734h5.87935v-16.5691l5.87935-3.4601v20.0292h5.87935v-37.2734c-0.000018-2.76162-0.397109-4.62118-1.1815-5.54178-0.784414-0.920513-2.34466-1.37837-4.69785-1.37841h-5.87935zm28.4684 0v44.1936h6.18879v-16.5972l0.0563-0.02809 6.1044 16.6253h6.18879l-7.2015-19.4947 4.72598-2.61617c1.64813-0.902123 2.4755-2.75196 2.47552-5.51365v-9.64888c-0.00002-2.76162-0.41371-4.62118-1.23776-5.54178-0.82408-0.920513-2.47884-1.37837-4.95103-1.37841h-12.3494zm54.6301 0v6.94832l6.47009-0.02809v37.2734h5.87935v-37.2453h6.72328v-6.94832h-19.0727zm33.2788 0v44.1936h6.18879v-16.5972l0.0563-0.02809 6.13252 16.6253h6.16066l-7.17337-19.4947 4.72599-2.61617c1.64812-0.902123 2.44736-2.75196 2.44738-5.51365v-9.64888c-0.00002-2.76162-0.41371-4.62118-1.23776-5.54178-0.82408-0.920513-2.4507-1.37837-4.9229-1.37841h-12.3776zm33.9258 0v44.1936h16.0346l0.0281-6.92019h-9.87393v-9.67702l9.87393-5.51365v-8.27047l-9.87393 5.48552v-12.3776h9.87393v-6.92019h-16.0627zm32.1254 0v44.1936h6.18879v-11.0554l1.60345-4.30402 4.58534 15.3594h6.16065l-7.31402-24.5582 7.31402-19.6353h-6.16065l-6.18879 16.5691v-16.5691h-6.18879zm-182.429 6.92019h5.87935v8.97374l-5.87935 3.43196v-12.4057zm34.6572 0h6.16066v8.97374l-6.16066 3.40383v-12.3776zm87.9089 0h6.18879v8.97374l-6.18879 3.40383v-12.3776z"/>
</svg>
