<svg id="Layer_1" data-name="Layer 1" xmlns="http://www.w3.org/2000/svg" viewBox="0 0 369 40"><defs><style>.cls-2{fill:#3b3b3c}</style></defs><path d="M35.24 20.91A15.28 15.28 0 0 1 9.18 30.8 15.28 15.28 0 0 1 30.8 9.2a16.19 16.19 0 0 1 1.4 1.6l2.92-3.57C34.77 6.81 34.4 6.4 34 6A19.81 19.81 0 1 0 6 34a19.8 19.8 0 0 0 33.39-18z" fill="#33a544"/><path class="cls-2" d="M210.71 10.64c-4.43 0-7.73 3.52-7.73 9.33 0 6.44 3.54 9.29 8.28 9.29a11.22 11.22 0 0 0 6.79-2.18l-.49-3.48a9.65 9.65 0 0 1-5.84 2.22c-2.6 0-4.35-1.52-4.56-5h10.89v-1.07c.03-5.07-2.25-9.11-7.34-9.11zM207.22 18c.33-2.92 1.69-4.32 3.38-4.32 2 0 3.09 1.55 3.37 4.32zm23.67-7.36c-2.27 0-4.07 1.3-5.65 2.89l-.38-2.53h-3.59v17.89h4.21V16.82c1.23-1.37 2.54-2.26 3.87-2.26 1.54 0 2.18 1.08 2.18 2.63v11.7h4.21V16c0-3.32-1.68-5.36-4.85-5.36zm14.87 7.19c-2.53-.71-3.16-1.22-3.16-2.19S243.37 14 245 14a11.17 11.17 0 0 1 5.38 1.63l.56-3.7a13.8 13.8 0 0 0-5.94-1.24c-3.93 0-6.25 2.17-6.25 5.25 0 3.25 1.71 4.51 5.83 5.62 2.7.71 3.44 1.22 3.44 2.48s-1 1.86-2.81 1.86a11.36 11.36 0 0 1-6.21-2.12l-.56 3.71a14.26 14.26 0 0 0 6.56 1.73c4.46 0 6.85-2.07 6.85-5.59.02-3.36-1.7-4.63-6.09-5.8zm-50.76 0c-2.52-.71-3.15-1.22-3.15-2.19s.77-1.63 2.35-1.63a11.13 11.13 0 0 1 5.37 1.63l.57-3.7a13.76 13.76 0 0 0-5.94-1.25c-3.94 0-6.25 2.17-6.25 5.25 0 3.25 1.72 4.51 5.83 5.62 2.71.71 3.45 1.22 3.45 2.48s-1 1.86-2.82 1.86a11.36 11.36 0 0 1-6.18-2.12l-.56 3.71a14.19 14.19 0 0 0 6.6 1.73c4.46 0 6.85-2.07 6.85-5.59.03-3.36-1.69-4.63-6.12-5.8zm-22.67-7.19c-2.28 0-4.07 1.3-5.66 2.89l-.38-2.53h-3.58v17.9h4.22V16.82c1.23-1.36 2.52-2.25 3.86-2.25 1.54 0 2.18 1.07 2.18 2.63v11.7h4.21V16c0-3.32-1.69-5.36-4.85-5.36zm-36.2 0a8 8 0 0 0-5.66 2.89 4.19 4.19 0 0 0-4.36-2.89c-2.27 0-4 1.3-5.58 2.89l-.39-2.53h-3.58v17.9h4.21V16.79c1.24-1.33 2.46-2.22 3.77-2.22 1.54 0 2.1 1.07 2.1 2.63v11.7h4.21V16.79c1.24-1.33 2.47-2.22 3.77-2.22 1.54 0 2.07 1.07 2.07 2.63v11.7h4.21V16c0-3.32-1.58-5.36-4.77-5.36zm-28.36 0a7.93 7.93 0 0 0-5.65 2.89 4.19 4.19 0 0 0-4.36-2.89c-2.29 0-4 1.3-5.58 2.89L91.79 11H88.2v17.9h4.22V16.79c1.23-1.33 2.46-2.22 3.76-2.22 1.55 0 2.11 1.07 2.11 2.63v11.7h4.21V16.79c1.24-1.33 2.46-2.22 3.77-2.22 1.54 0 2.07 1.07 2.07 2.63v11.7h4.21V16c0-3.32-1.55-5.36-4.78-5.36zm-30.39 0c-4.6 0-8 3.52-8 9.34s3.34 9.29 7.94 9.29S85.4 25.78 85.4 20s-3.4-9.36-8.02-9.36zm0 15c-2.46 0-3.83-2.4-3.83-5.65s1.34-5.67 3.83-5.67 3.94 2.37 3.94 5.67-1.32 5.64-3.97 5.64zm-14.57-.22c-2.57 0-4.46-1.78-4.46-5.48s1.75-5.44 4.18-5.44A6.8 6.8 0 0 1 67 16.17l.59-4a9.29 9.29 0 0 0-5.31-1.52c-4.49 0-8.18 3.19-8.18 9.41 0 5.85 3.34 9.18 8 9.18a8.94 8.94 0 0 0 5.62-1.74l-.56-3.78a6.5 6.5 0 0 1-4.35 1.7zm198.62-14.78c-4.43 0-7.74 3.52-7.74 9.33 0 6.44 3.56 9.29 8.3 9.29a11.16 11.16 0 0 0 6.77-2.18l-.48-3.48a9.67 9.67 0 0 1-5.83 2.22c-2.6 0-4.36-1.52-4.57-5h10.88v-1.07c.04-5.07-2.24-9.11-7.33-9.11zM258 18c.32-2.92 1.69-4.32 3.37-4.32 2 0 3.1 1.55 3.38 4.32zm-106-7.36c-4.6 0-8 3.52-8 9.34s3.34 9.29 7.94 9.29S160 25.78 160 20s-3.36-9.36-8-9.36zm0 15c-2.45 0-3.82-2.4-3.82-5.65s1.33-5.67 3.82-5.67 3.93 2.37 3.93 5.67-1.36 5.64-3.93 5.64zM41.42 3.32 26 22c-1.39 1.52-2.74 2.3-4 2.3a4.23 4.23 0 0 1-2.78-1.2l-5.43-5.68a2.1 2.1 0 0 0-3-.05 2.14 2.14 0 0 0-.07 3L16 26.11a8.2 8.2 0 0 0 5.83 2.73c2.54 0 5-1.4 7.19-3.86L44.65 6a2.1 2.1 0 1 0-3.23-2.67zm292.69 10.27a10.64 10.64 0 0 0-4.28-.85c-3.87 0-7.33 2.85-7.33 8.65 0 5.36 3 7.87 6.55 7.87a6.54 6.54 0 0 0 5.1-2.68l.4 2.34h1.16V5h-1.6zm0 11.3c-1.56 1.76-3.09 2.91-5 2.91-2.85 0-4.92-2.3-4.92-6.47 0-4.92 2.54-7.19 5.7-7.19a9.18 9.18 0 0 1 4.24 1zm33.08-10.02c0-.58-.43-.92-1.1-.92h-.86v3.17h.46V15.8h.31l1 1.36.48-.12-.94-1.3a.86.86 0 0 0 .65-.87zm-1.51.56v-1.07h.4c.42 0 .65.19.65.53s-.25.54-.66.54zm-10.83-2.75a13.6 13.6 0 0 0-5.74 1.39l.21 1.49a11.87 11.87 0 0 1 5.47-1.43c2.2 0 3.52 1.09 3.52 3.33v1.39c-7.67.71-10.38 2.61-10.38 6.17 0 2.89 2.14 4.25 4.82 4.25a8.83 8.83 0 0 0 5.63-2.48l.37 2.13h1.13V17.39c0-3.05-1.77-4.71-5.03-4.71zm3.46 12.65a9.09 9.09 0 0 1-5.49 2.54c-1.8 0-3.26-.95-3.26-3 0-2.62 2.17-4 8.75-4.72z"/><path class="cls-2" d="M366.15 12.78a2.71 2.71 0 0 0-2.8 2.85 2.8 2.8 0 1 0 5.59 0 2.7 2.7 0 0 0-2.79-2.85zm0 5.43a2.4 2.4 0 0 1-2.46-2.58 2.39 2.39 0 0 1 2.46-2.57 2.41 2.41 0 0 1 2.47 2.58 2.41 2.41 0 0 1-2.47 2.57zM342.36 5.92A1.39 1.39 0 0 0 341 7.28a1.44 1.44 0 0 0 1.39 1.39 1.41 1.41 0 0 0 1.36-1.39 1.36 1.36 0 0 0-1.39-1.36zm-45.49 6.72c-2.17 0-4 1.12-6 2.89-.55-1.87-2-2.89-4.48-2.89-2.07 0-3.8 1-5.71 2.65L280.3 13h-1.15v16h1.6V17c2-1.8 3.8-2.78 5.5-2.78 2.3 0 3.35 1.32 3.35 3.73v10.97h1.57v-12c2-1.84 3.8-2.82 5.5-2.82 2.31 0 3.36 1.32 3.36 3.73v11.09h1.59V17.63c0-3.15-1.46-4.99-4.75-4.99zm15.93 0c-3.87 0-6.79 3.22-6.79 8.31s2.81 8.31 7 8.31a8.85 8.85 0 0 0 5.84-2.34l-.24-1.49a8.62 8.62 0 0 1-5.53 2.44c-3.56 0-5.47-2.85-5.47-6.92h11.29v-.34c0-4.41-2.03-7.97-6.1-7.97zm-5.1 7c.38-3.33 2.07-5.67 5.09-5.67 2.79 0 4.31 2.55 4.41 5.67zm33.88-6.66h1.56v15.94h-1.56z"/></svg>