<?xml version="1.0" encoding="UTF-8"?>
<svg width="700pt" height="700pt" version="1.1" viewBox="0 0 700 700" xmlns="http://www.w3.org/2000/svg" xmlns:xlink="http://www.w3.org/1999/xlink">
 <defs>
  <symbol id="u" overflow="visible">
   <path d="m18.766-1.125c-0.96875 0.5-1.9805 0.875-3.0312 1.125-1.043 0.25781-2.1367 0.39062-3.2812 0.39062-3.3984 0-6.0898-0.94531-8.0781-2.8438-1.9922-1.9062-2.9844-4.4844-2.9844-7.7344 0-3.2578 0.99219-5.8359 2.9844-7.7344 1.9883-1.9062 4.6797-2.8594 8.0781-2.8594 1.1445 0 2.2383 0.13281 3.2812 0.39062 1.0508 0.25 2.0625 0.625 3.0312 1.125v4.2188c-0.98047-0.65625-1.9453-1.1406-2.8906-1.4531-0.94922-0.3125-1.9492-0.46875-3-0.46875-1.875 0-3.3516 0.60547-4.4219 1.8125-1.0742 1.1992-1.6094 2.8555-1.6094 4.9688 0 2.1055 0.53516 3.7617 1.6094 4.9688 1.0703 1.1992 2.5469 1.7969 4.4219 1.7969 1.0508 0 2.0508-0.14844 3-0.45312 0.94531-0.3125 1.9102-0.80078 2.8906-1.4688z"/>
  </symbol>
  <symbol id="b" overflow="visible">
   <path d="m13.734-11.141c-0.4375-0.19531-0.87109-0.34375-1.2969-0.4375-0.41797-0.10156-0.83984-0.15625-1.2656-0.15625-1.2617 0-2.2305 0.40625-2.9062 1.2188-0.67969 0.80469-1.0156 1.9531-1.0156 3.4531v7.0625h-4.8906v-15.312h4.8906v2.5156c0.625-1 1.3438-1.7266 2.1562-2.1875 0.82031-0.46875 1.8008-0.70312 2.9375-0.70312 0.16406 0 0.34375 0.011719 0.53125 0.03125 0.19531 0.011719 0.47656 0.039062 0.84375 0.078125z"/>
  </symbol>
  <symbol id="d" overflow="visible">
   <path d="m17.641-7.7031v1.4062h-11.453c0.125 1.1484 0.53906 2.0078 1.25 2.5781 0.70703 0.57422 1.7031 0.85938 2.9844 0.85938 1.0312 0 2.082-0.14844 3.1562-0.45312 1.082-0.3125 2.1914-0.77344 3.3281-1.3906v3.7656c-1.1562 0.4375-2.3125 0.76562-3.4688 0.98438-1.1562 0.22656-2.3125 0.34375-3.4688 0.34375-2.7734 0-4.9297-0.70312-6.4688-2.1094-1.5312-1.4062-2.2969-3.3789-2.2969-5.9219 0-2.5 0.75391-4.4609 2.2656-5.8906 1.5078-1.4375 3.582-2.1562 6.2188-2.1562 2.4062 0 4.332 0.73047 5.7812 2.1875 1.4453 1.4492 2.1719 3.3828 2.1719 5.7969zm-5.0312-1.625c0-0.92578-0.27344-1.6719-0.8125-2.2344-0.54297-0.57031-1.25-0.85938-2.125-0.85938-0.94922 0-1.7188 0.26562-2.3125 0.79688s-0.96484 1.2969-1.1094 2.2969z"/>
  </symbol>
  <symbol id="f" overflow="visible">
   <path d="m9.2188-6.8906c-1.0234 0-1.793 0.17188-2.3125 0.51562-0.51172 0.34375-0.76562 0.85547-0.76562 1.5312 0 0.625 0.20703 1.1172 0.625 1.4688 0.41406 0.34375 0.98828 0.51562 1.7188 0.51562 0.92578 0 1.7031-0.32812 2.3281-0.98438 0.63281-0.66406 0.95312-1.4922 0.95312-2.4844v-0.5625zm7.4688-1.8438v8.7344h-4.9219v-2.2656c-0.65625 0.92969-1.3984 1.6055-2.2188 2.0312-0.82422 0.41406-1.8242 0.625-3 0.625-1.5859 0-2.8711-0.45703-3.8594-1.375-0.99219-0.92578-1.4844-2.1289-1.4844-3.6094 0-1.7891 0.61328-3.1016 1.8438-3.9375 1.2383-0.84375 3.1797-1.2656 5.8281-1.2656h2.8906v-0.39062c0-0.76953-0.30859-1.332-0.92188-1.6875-0.61719-0.36328-1.5703-0.54688-2.8594-0.54688-1.0547 0-2.0312 0.10547-2.9375 0.3125-0.89844 0.21094-1.7305 0.52344-2.5 0.9375v-3.7344c1.0391-0.25 2.0859-0.44141 3.1406-0.57812 1.0625-0.13281 2.125-0.20312 3.1875-0.20312 2.7578 0 4.75 0.54688 5.9688 1.6406 1.2266 1.0859 1.8438 2.8555 1.8438 5.3125z"/>
  </symbol>
  <symbol id="c" overflow="visible">
   <path d="m7.7031-19.656v4.3438h5.0469v3.5h-5.0469v6.5c0 0.71094 0.14062 1.1875 0.42188 1.4375s0.83594 0.375 1.6719 0.375h2.5156v3.5h-4.1875c-1.9375 0-3.3125-0.39844-4.125-1.2031-0.80469-0.8125-1.2031-2.1797-1.2031-4.1094v-6.5h-2.4219v-3.5h2.4219v-4.3438z"/>
  </symbol>
  <symbol id="g" overflow="visible">
   <path d="m12.766-13.078v-8.2031h4.9219v21.281h-4.9219v-2.2188c-0.66797 0.90625-1.4062 1.5703-2.2188 1.9844s-1.7578 0.625-2.8281 0.625c-1.8867 0-3.4336-0.75-4.6406-2.25-1.2109-1.5-1.8125-3.4258-1.8125-5.7812 0-2.3633 0.60156-4.2969 1.8125-5.7969 1.207-1.5 2.7539-2.25 4.6406-2.25 1.0625 0 2 0.21484 2.8125 0.64062 0.82031 0.42969 1.5664 1.0859 2.2344 1.9688zm-3.2188 9.9219c1.0391 0 1.8359-0.37891 2.3906-1.1406 0.55078-0.76953 0.82812-1.8828 0.82812-3.3438 0-1.457-0.27734-2.5664-0.82812-3.3281-0.55469-0.76953-1.3516-1.1562-2.3906-1.1562-1.043 0-1.8398 0.38672-2.3906 1.1562-0.55469 0.76172-0.82812 1.8711-0.82812 3.3281 0 1.4609 0.27344 2.5742 0.82812 3.3438 0.55078 0.76172 1.3477 1.1406 2.3906 1.1406z"/>
  </symbol>
  <symbol id="m" overflow="visible">
   <path d="m10.5-3.1562c1.0508 0 1.8516-0.37891 2.4062-1.1406 0.55078-0.76953 0.82812-1.8828 0.82812-3.3438 0-1.457-0.27734-2.5664-0.82812-3.3281-0.55469-0.76953-1.3555-1.1562-2.4062-1.1562-1.0547 0-1.8594 0.38672-2.4219 1.1562-0.55469 0.77344-0.82812 1.8828-0.82812 3.3281 0 1.4492 0.27344 2.5586 0.82812 3.3281 0.5625 0.77344 1.3672 1.1562 2.4219 1.1562zm-3.25-9.9219c0.67578-0.88281 1.4219-1.5391 2.2344-1.9688 0.82031-0.42578 1.7656-0.64062 2.8281-0.64062 1.8945 0 3.4453 0.75 4.6562 2.25 1.207 1.5 1.8125 3.4336 1.8125 5.7969 0 2.3555-0.60547 4.2812-1.8125 5.7812-1.2109 1.5-2.7617 2.25-4.6562 2.25-1.0625 0-2.0078-0.21094-2.8281-0.625-0.8125-0.42578-1.5586-1.0859-2.2344-1.9844v2.2188h-4.8906v-21.281h4.8906z"/>
  </symbol>
  <symbol id="l" overflow="visible">
   <path d="m0.34375-15.312h4.8906l4.125 10.391 3.5-10.391h4.8906l-6.4375 16.766c-0.64844 1.6953-1.4023 2.8828-2.2656 3.5625-0.86719 0.6875-2 1.0312-3.4062 1.0312h-2.8438v-3.2188h1.5312c0.83203 0 1.4375-0.13672 1.8125-0.40625 0.38281-0.26172 0.67969-0.73047 0.89062-1.4062l0.14062-0.42188z"/>
  </symbol>
  <symbol id="k" overflow="visible">
   <path d="m7.25-2.2188v8.0469h-4.8906v-21.141h4.8906v2.2344c0.67578-0.88281 1.4219-1.5391 2.2344-1.9688 0.82031-0.42578 1.7656-0.64062 2.8281-0.64062 1.8945 0 3.4453 0.75 4.6562 2.25 1.207 1.5 1.8125 3.4336 1.8125 5.7969 0 2.3555-0.60547 4.2812-1.8125 5.7812-1.2109 1.5-2.7617 2.25-4.6562 2.25-1.0625 0-2.0078-0.21094-2.8281-0.625-0.8125-0.42578-1.5586-1.0859-2.2344-1.9844zm3.25-9.9062c-1.0547 0-1.8594 0.38672-2.4219 1.1562-0.55469 0.77344-0.82812 1.8828-0.82812 3.3281 0 1.4492 0.27344 2.5586 0.82812 3.3281 0.5625 0.77344 1.3672 1.1562 2.4219 1.1562 1.0508 0 1.8516-0.37891 2.4062-1.1406 0.55078-0.76953 0.82812-1.8828 0.82812-3.3438 0-1.457-0.27734-2.5664-0.82812-3.3281-0.55469-0.76953-1.3555-1.1562-2.4062-1.1562z"/>
  </symbol>
  <symbol id="j" overflow="visible">
   <path d="m14.312-14.828v3.7188c-1.043-0.4375-2.0547-0.76562-3.0312-0.98438-0.98047-0.21875-1.9023-0.32812-2.7656-0.32812-0.92969 0-1.6211 0.11719-2.0781 0.34375-0.44922 0.23047-0.67188 0.58984-0.67188 1.0781 0 0.38672 0.17188 0.68359 0.51562 0.89062 0.34375 0.21094 0.95703 0.36719 1.8438 0.46875l0.85938 0.125c2.5078 0.32422 4.1953 0.85156 5.0625 1.5781 0.86328 0.73047 1.2969 1.8711 1.2969 3.4219 0 1.6367-0.60547 2.8672-1.8125 3.6875-1.1992 0.8125-2.9922 1.2188-5.375 1.2188-1.0234 0-2.0742-0.078125-3.1562-0.23438-1.0742-0.15625-2.1797-0.39453-3.3125-0.71875v-3.7188c0.96875 0.48047 1.9609 0.83984 2.9844 1.0781 1.0312 0.23047 2.0781 0.34375 3.1406 0.34375 0.95703 0 1.6758-0.12891 2.1562-0.39062 0.47656-0.26953 0.71875-0.66406 0.71875-1.1875 0-0.4375-0.16797-0.75781-0.5-0.96875-0.33594-0.21875-0.99609-0.38281-1.9844-0.5l-0.85938-0.10938c-2.1797-0.26953-3.7031-0.77344-4.5781-1.5156-0.875-0.73828-1.3125-1.8594-1.3125-3.3594 0-1.625 0.55078-2.8281 1.6562-3.6094 1.1133-0.78906 2.8203-1.1875 5.125-1.1875 0.89453 0 1.8359 0.074219 2.8281 0.21875 1 0.13672 2.082 0.35156 3.25 0.64062z"/>
  </symbol>
  <symbol id="a" overflow="visible">
   <path d="m9.6406-12.188c-1.0859 0-1.9141 0.39062-2.4844 1.1719-0.57422 0.78125-0.85938 1.9062-0.85938 3.375s0.28516 2.5938 0.85938 3.375c0.57031 0.77344 1.3984 1.1562 2.4844 1.1562 1.0625 0 1.875-0.38281 2.4375-1.1562 0.57031-0.78125 0.85938-1.9062 0.85938-3.375s-0.28906-2.5938-0.85938-3.375c-0.5625-0.78125-1.375-1.1719-2.4375-1.1719zm0-3.5c2.6328 0 4.6914 0.71484 6.1719 2.1406 1.4766 1.418 2.2188 3.3867 2.2188 5.9062 0 2.5117-0.74219 4.4805-2.2188 5.9062-1.4805 1.418-3.5391 2.125-6.1719 2.125-2.6484 0-4.7148-0.70703-6.2031-2.125-1.4922-1.4258-2.2344-3.3945-2.2344-5.9062 0-2.5195 0.74219-4.4883 2.2344-5.9062 1.4883-1.4258 3.5547-2.1406 6.2031-2.1406z"/>
  </symbol>
  <symbol id="e" overflow="visible">
   <path d="m17.75-9.3281v9.3281h-4.9219v-7.1406c0-1.3203-0.03125-2.2344-0.09375-2.7344s-0.16797-0.86719-0.3125-1.1094c-0.1875-0.3125-0.44922-0.55469-0.78125-0.73438-0.32422-0.17578-0.69531-0.26562-1.1094-0.26562-1.0234 0-1.8242 0.39844-2.4062 1.1875-0.58594 0.78125-0.875 1.8711-0.875 3.2656v7.5312h-4.8906v-15.312h4.8906v2.2344c0.73828-0.88281 1.5195-1.5391 2.3438-1.9688 0.83203-0.42578 1.75-0.64062 2.75-0.64062 1.7695 0 3.1133 0.54688 4.0312 1.6406 0.91406 1.0859 1.375 2.6562 1.375 4.7188z"/>
  </symbol>
  <symbol id="i" overflow="visible">
   <path d="m12.766-2.5938c-0.66797 0.88672-1.4062 1.543-2.2188 1.9688-0.8125 0.41797-1.7578 0.625-2.8281 0.625-1.8672 0-3.4062-0.73438-4.625-2.2031-1.2188-1.4766-1.8281-3.3516-1.8281-5.625 0-2.2891 0.60938-4.1641 1.8281-5.625 1.2188-1.4688 2.7578-2.2031 4.625-2.2031 1.0703 0 2.0156 0.21484 2.8281 0.64062 0.8125 0.41797 1.5508 1.0742 2.2188 1.9688v-2.2656h4.9219v13.766c0 2.457-0.77734 4.3359-2.3281 5.6406-1.5547 1.3008-3.8086 1.9531-6.7656 1.9531-0.94922 0-1.8711-0.074219-2.7656-0.21875-0.89844-0.14844-1.7969-0.37109-2.7031-0.67188v-3.8125c0.86328 0.48828 1.7031 0.85156 2.5156 1.0938 0.82031 0.23828 1.6484 0.35938 2.4844 0.35938 1.6016 0 2.7734-0.35156 3.5156-1.0469 0.75-0.69922 1.125-1.7969 1.125-3.2969zm-3.2188-9.5312c-1.0117 0-1.8047 0.375-2.375 1.125-0.5625 0.74219-0.84375 1.7969-0.84375 3.1719 0 1.3984 0.26953 2.4609 0.8125 3.1875 0.55078 0.71875 1.3516 1.0781 2.4062 1.0781 1.0195 0 1.8125-0.36719 2.375-1.1094 0.5625-0.75 0.84375-1.8008 0.84375-3.1562 0-1.375-0.28125-2.4297-0.84375-3.1719-0.5625-0.75-1.3555-1.125-2.375-1.125z"/>
  </symbol>
  <symbol id="h" overflow="visible">
   <path d="m2.1875-5.9688v-9.3438h4.9219v1.5312c0 0.83594-0.007813 1.875-0.015625 3.125-0.011719 1.25-0.015625 2.0859-0.015625 2.5 0 1.2422 0.03125 2.1328 0.09375 2.6719 0.070313 0.54297 0.17969 0.93359 0.32812 1.1719 0.20703 0.32422 0.47266 0.57422 0.79688 0.75 0.32031 0.16797 0.69141 0.25 1.1094 0.25 1.0195 0 1.8203-0.39062 2.4062-1.1719 0.58203-0.78125 0.875-1.8672 0.875-3.2656v-7.5625h4.8906v15.312h-4.8906v-2.2188c-0.74219 0.89844-1.5234 1.5586-2.3438 1.9844-0.82422 0.41406-1.7344 0.625-2.7344 0.625-1.7617 0-3.1055-0.53906-4.0312-1.625-0.92969-1.082-1.3906-2.6602-1.3906-4.7344z"/>
  </symbol>
  <symbol id="t" overflow="visible">
   <path d="m12.422-21.281v3.2188h-2.7031c-0.6875 0-1.1719 0.125-1.4531 0.375-0.27344 0.25-0.40625 0.6875-0.40625 1.3125v1.0625h4.1875v3.5h-4.1875v11.812h-4.8906v-11.812h-2.4375v-3.5h2.4375v-1.0625c0-1.6641 0.46094-2.8984 1.3906-3.7031 0.92578-0.80078 2.3672-1.2031 4.3281-1.2031z"/>
  </symbol>
  <symbol id="s" overflow="visible">
   <path d="m16.547-12.766c0.61328-0.94531 1.3477-1.6719 2.2031-2.1719 0.85156-0.5 1.7891-0.75 2.8125-0.75 1.7578 0 3.0977 0.54688 4.0156 1.6406 0.92578 1.0859 1.3906 2.6562 1.3906 4.7188v9.3281h-4.9219v-7.9844-0.35938c0.007813-0.13281 0.015625-0.32031 0.015625-0.5625 0-1.082-0.16406-1.8633-0.48438-2.3438-0.3125-0.48828-0.82422-0.73438-1.5312-0.73438-0.92969 0-1.6484 0.38672-2.1562 1.1562-0.51172 0.76172-0.77344 1.8672-0.78125 3.3125v7.5156h-4.9219v-7.9844c0-1.6953-0.14844-2.7852-0.4375-3.2656-0.29297-0.48828-0.8125-0.73438-1.5625-0.73438-0.9375 0-1.6641 0.38672-2.1719 1.1562-0.51172 0.76172-0.76562 1.8594-0.76562 3.2969v7.5312h-4.9219v-15.312h4.9219v2.2344c0.60156-0.86328 1.2891-1.5156 2.0625-1.9531 0.78125-0.4375 1.6406-0.65625 2.5781-0.65625 1.0625 0 2 0.25781 2.8125 0.76562 0.8125 0.51172 1.4258 1.2305 1.8438 2.1562z"/>
  </symbol>
  <symbol id="r" overflow="visible">
   <path d="m17.75-9.3281v9.3281h-4.9219v-7.1094c0-1.3438-0.03125-2.2656-0.09375-2.7656s-0.16797-0.86719-0.3125-1.1094c-0.1875-0.3125-0.44922-0.55469-0.78125-0.73438-0.32422-0.17578-0.69531-0.26562-1.1094-0.26562-1.0234 0-1.8242 0.39844-2.4062 1.1875-0.58594 0.78125-0.875 1.8711-0.875 3.2656v7.5312h-4.8906v-21.281h4.8906v8.2031c0.73828-0.88281 1.5195-1.5391 2.3438-1.9688 0.83203-0.42578 1.75-0.64062 2.75-0.64062 1.7695 0 3.1133 0.54688 4.0312 1.6406 0.91406 1.0859 1.375 2.6562 1.375 4.7188z"/>
  </symbol>
  <symbol id="q" overflow="visible">
   <path d="m2.5781-20.406h5.875l7.4219 14v-14h4.9844v20.406h-5.875l-7.4219-14v14h-4.9844z"/>
  </symbol>
  <symbol id="p" overflow="visible">
   <path d="m2.5781-20.406h8.7344c2.5938 0 4.582 0.57812 5.9688 1.7344 1.3945 1.1484 2.0938 2.7891 2.0938 4.9219 0 2.1367-0.69922 3.7812-2.0938 4.9375-1.3867 1.1562-3.375 1.7344-5.9688 1.7344h-3.4844v7.0781h-5.25zm5.25 3.8125v5.7031h2.9219c1.0195 0 1.8047-0.25 2.3594-0.75 0.5625-0.5 0.84375-1.2031 0.84375-2.1094 0-0.91406-0.28125-1.6172-0.84375-2.1094-0.55469-0.48828-1.3398-0.73438-2.3594-0.73438z"/>
  </symbol>
  <symbol id="o" overflow="visible">
   <path d="m2.3594-15.312h4.8906v15.031c0 2.0508-0.49609 3.6172-1.4844 4.7031-0.98047 1.082-2.4062 1.625-4.2812 1.625h-2.4219v-3.2188h0.85938c0.92578 0 1.5625-0.21094 1.9062-0.625 0.35156-0.41797 0.53125-1.2461 0.53125-2.4844zm0-5.9688h4.8906v4h-4.8906z"/>
  </symbol>
  <symbol id="n" overflow="visible">
   <path d="m14.719-14.828v3.9844c-0.65625-0.45703-1.3242-0.79688-2-1.0156-0.66797-0.21875-1.3594-0.32812-2.0781-0.32812-1.3672 0-2.4336 0.40234-3.2031 1.2031-0.76172 0.79297-1.1406 1.9062-1.1406 3.3438 0 1.4297 0.37891 2.543 1.1406 3.3438 0.76953 0.79297 1.8359 1.1875 3.2031 1.1875 0.75781 0 1.4844-0.10938 2.1719-0.32812 0.6875-0.22656 1.3203-0.56641 1.9062-1.0156v4c-0.76172 0.28125-1.5391 0.48828-2.3281 0.625-0.78125 0.14453-1.5742 0.21875-2.375 0.21875-2.7617 0-4.9219-0.70703-6.4844-2.125-1.5547-1.4141-2.3281-3.3828-2.3281-5.9062 0-2.5312 0.77344-4.5039 2.3281-5.9219 1.5625-1.4141 3.7227-2.125 6.4844-2.125 0.80078 0 1.5938 0.074219 2.375 0.21875 0.78125 0.13672 1.5547 0.35156 2.3281 0.64062z"/>
  </symbol>
 </defs>
 <g>
  <path d="m339.41 414.01c5.1523-9.8555-1.2305-27.551-29.902-36.457-2.0156 16.184 6.5508 30.52 29.902 36.457z"/>
  <path d="m301.34 398.55c3.6953-9.2969-0.89453-24.527-26.375-33.602-3.3594 14.676 4.4219 30.691 26.375 33.602z"/>
  <path d="m247.02 352.8c-4.0898 11.199-1.8477 29.848 21.168 33.938 3.6953-7.6758 1.625-22.738-21.168-33.938z"/>
  <path d="m221.93 364c3.582 4.707 8.6562 8.0625 14.391 9.5195 0.59766-0.98047 1.0703-2.0352 1.3984-3.1367 0.86719-2.5938 1.1875-5.3398 0.95312-8.0625-0.67188-9.5195-8.2891-17.359-16.297-23.297-3.4883 5.8164-4.6484 12.738-3.2461 19.375 0.61328 2.0117 1.5586 3.9062 2.8008 5.6016z"/>
  <path d="m206.98 356.66c6.2148-6.3281 8.0625-18.703-4.3125-34.273-11.816 11.09-11.09 26.656 4.3125 34.273z"/>
  <path d="m186.37 300.66c-13.047 8.0078-16.465 22.398-4.1445 34.105 7.8398-4.3711 13.273-15.57 4.1445-34.105z"/>
  <path d="m173.88 276.25c-13.383 4.7617-20.664 17.246-11.199 31.191 8.5117-2.3477 15.906-12.43 11.199-31.191z"/>
  <path d="m165.82 249.93c-13.945 1.9023-23.016 12.434-16.801 27.273 6.7188-0.39453 17.418-6.6094 16.801-27.273z"/>
  <path d="m162.29 222.27c-13.441-0.78516-24.191 7.3359-21.559 22.398 7.1094 1.3438 18.199-2.9688 21.559-22.398z"/>
  <path d="m138.32 211.57c2.8047 0.90234 5.8125 0.96484 8.6562 0.19141 2.8398-0.77734 5.3984-2.3594 7.3594-4.5586 2.9336-3.3867 5.1641-7.3281 6.5508-11.59-11.48-3.0234-22.008 2.125-22.566 15.957z"/>
  <path d="m291.98 358.4c-1.9023 6.3281 1.0078 15.289 13.047 19.824 1.2344-4.3125-0.72656-13.102-13.047-19.824z"/>
  <path d="m260.06 346.59c-2.0156 5.207-1.3438 14.672 10.359 19.602 1.1797-3.6445 0.61719-12.156-10.359-19.602z"/>
  <path d="m235.31 334.77c-1.9727 3.457-2.3594 7.5977-1.0625 11.359 1.2969 3.7656 4.1523 6.7891 7.8398 8.2969 1.9023-4.0352 1.5117-12.043-6.7773-19.656z"/>
  <path d="m217.05 340.14c1.6055-3.0352 2.2812-6.4766 1.9414-9.8906-0.33594-3.418-1.6758-6.6562-3.8438-9.3164-2.6797 2.625-4.0234 6.3242-3.6562 10.059 0.37109 3.7344 2.418 7.0977 5.5586 9.1484z"/>
  <path d="m198.8 303.02c-3.0703 2.1875-5.0547 5.5859-5.4492 9.332-0.39844 3.75 0.83203 7.4883 3.375 10.27 5.4883-4.6484 5.0977-12.77 2.0742-19.602z"/>
  <path d="m185.08 280.95c-3.3594 1.6133-5.8594 4.6016-6.8594 8.1992-0.99609 3.5938-0.39453 7.4414 1.6523 10.559 2.7109-2.1992 4.668-5.1875 5.5977-8.5469 0.93359-3.3633 0.79688-6.9297-0.39062-10.211z"/>
  <path d="m175.34 256.82c-3.5977 0.99609-6.5859 3.5117-8.1758 6.8906-1.5938 3.3789-1.6328 7.2812-0.11328 10.691 3.0352-1.707 5.4609-4.3203 6.9453-7.4688 1.4844-3.1523 1.957-6.6836 1.3438-10.113z"/>
  <path d="m158.87 246.68c3.207-1.2109 5.9648-3.3711 7.9062-6.1953 1.9414-2.8203 2.9727-6.1719 2.957-9.5977-3.5938 0.53516-6.8047 2.5391-8.8633 5.5352s-2.7852 6.7109-2 10.258z"/>
  <path d="m157.53 209.72c-0.32422 0.51953-0.60547 1.0625-0.83984 1.625-0.89062 2.0273-1.332 4.2266-1.2891 6.4414 4.3672 0 10.473-4.3672 12.879-14h0.003906c-4.3359 0.12109-8.3438 2.332-10.754 5.9336z"/>
  <path d="m156.35 188.27c4.3125 0 10.809-2.9688 14.504-12.266-3.5508-0.30859-7.082 0.8125-9.8047 3.1133-2.7227 2.3008-4.4141 5.5977-4.6992 9.1523z"/>
  <path d="m315.56 438.03c1.5156-0.82812 2.9609-1.7812 4.3125-2.8555 1.0586-0.89844 2.0508-1.8711 2.9688-2.9102 0.84766-0.95312 1.5977-1.9844 2.2383-3.082-4.9844-4.2461-11.215-6.7617-17.75-7.168-4.9727-0.16797-9.9023 0.99219-14.281 3.3594-4.8516 2.6016-9.0898 6.2109-12.43 10.586 6.8633 3.0938 14.258 4.8438 21.781 5.1523 4.5742 0.074219 9.0977-0.98047 13.16-3.082z"/>
  <path d="m289.35 413.56c-6.9102-4.8984-15.465-6.9023-23.836-5.5859-8.3672 1.3203-15.891 5.8555-20.965 12.645 11.199 4.9844 25.535 8.2891 36.23 2.1836h0.003906c3.7852-2.0664 6.793-5.3125 8.5664-9.2422z"/>
  <path d="m254.35 403.54c0.72656-0.94531 1.3281-1.9805 1.793-3.0781-17.809-11.648-35.113-6.4414-44.465 4.3672 14.504 7.7266 33.207 11.535 42.672-1.2891z"/>
  <path d="m223.55 384.89c-16.801-12.879-33.879-9.7422-43.848-0.89453 23.41 16.91 39.703 10.023 43.848 0.89453z"/>
  <path d="m193.2 364.84c-14.391-15.062-31.137-15.289-41.945-9.0156 17.305 20.16 35.898 18.48 41.945 9.0156z"/>
  <path d="m167.66 338.63c-10.641-17.695-26.77-18.816-37.07-14.223 13.605 20.996 29.789 21.668 37.07 14.223z"/>
  <path d="m115.7 290.14c10.191 22.398 25.367 24.246 33.152 18.145-6.9453-17.082-20.832-22.066-33.152-18.145z"/>
  <path d="m107.13 254.07c6.5508 22.398 20.777 25.93 28.84 21.168-4.3672-17.359-16.801-23.629-28.84-21.168z"/>
  <path d="m129.36 240.8c-1.5664-19.098-14.895-24.137-24.754-23.07 3.5859 22.453 16.969 26.375 24.754 23.07z"/>
  <path d="m128.86 205.74c0.80859-5.0391-0.71484-10.176-4.1484-13.957-3.4297-3.7773-8.3945-5.793-13.492-5.4727 1.3438 18.816 12.043 21.223 17.641 19.43z"/>
  <path d="m125.55 143.47c-11.199 19.543-3.4727 32.258 3.0781 35.504h0.003906c3.8516-5.2969 5.6641-11.805 5.0977-18.328-0.56641-6.5234-3.4727-12.625-8.1797-17.176z"/>
  <path d="m139.55 156.8c11.535-7.6719 14.84-24.191 16.07-38.023h0.003906c-6.1992 3.9805-11.047 9.7422-13.914 16.527-2.8711 6.7852-3.6211 14.277-2.1602 21.496z"/>
  <path d="m254.13 438.09c14.953 3.5273 22.398-2.0156 24.473-5.9922-14.73-5.1523-22.57 2.4609-24.473 5.9922z"/>
  <path d="m216.27 420c16.184 5.6016 23.91-0.50391 25.648-3.6953-13.273-5.4336-22.402-1.1758-25.648 3.6953z"/>
  <path d="m183.01 399.5c15.121 7.7852 24.137 3.3594 26.488 0-13.609-7.2227-23.184-3.5273-26.488 0z"/>
  <path d="m178.36 377.78c-12.434-9.8555-22.398-8.625-26.434-5.6016 13.273 10.863 23.465 8.625 26.434 5.6016z"/>
  <path d="m151.7 349.05c-8.793-10.863-17.695-12.266-23.184-9.8555 9.2422 11.312 18.93 12.375 23.184 9.8555z"/>
  <path d="m132.66 317.46c-7.168-13.328-16.801-14.281-20.719-13.215 7.6719 13.383 16.91 14.949 20.719 13.215z"/>
  <path d="m119.45 283.25c-4.6484-13.27-12.824-16.406-17.754-15.957 5.375 14.781 14.449 16.633 17.754 15.957z"/>
  <path d="m112.45 247.69c-1.793-12.488-8.8477-17.527-14.449-18.086 2.8008 15.008 11.199 18.199 14.449 18.086z"/>
  <path d="m100.18 192.92c0.44922 13.383 7.2227 18.594 11.199 18.984v-0.003906c0.45313-3.6484-0.21094-7.3516-1.8984-10.617-1.6875-3.2695-4.3242-5.9492-7.5625-7.6914-0.5625-0.27344-1.1406-0.5-1.7383-0.67188z"/>
  <path d="m107.35 157.3c-1.1758 13.16 4.7617 18.703 8.5117 19.602 1.793-11.594-3.4141-17.977-8.5117-19.602z"/>
  <path d="m456.4 389.31c90.777-41.496 123.93-122.86 109.43-205.46 1.1211-17.863-14.727-29.734-27.496-32.48 0.53516 6.8789 2.2812 13.609 5.1523 19.879 4.1133 8.7422 11.402 15.59 20.383 19.152 3.1172 26.281 1.043 52.918-6.1016 78.402-37.465 127.51-162.4 121.52-207.76 156.8-45.527-35.504-170.3-29.512-207.76-156.8-7.1445-25.484-9.2188-52.121-6.1016-78.402 8.8867-3.5938 16.086-10.414 20.16-19.094 2.8945-6.3438 4.6406-13.152 5.1523-20.105-12.77 2.7422-28.617 14.617-27.496 32.48-14.504 82.77 18.648 164.14 109.65 205.63 44.801 20.496 90.945 31.695 106.4 49.223 15.68-17.527 61.602-28.727 106.4-49.223z"/>
  <path d="m360.59 414.01c23.352-5.9375 31.922-20.273 29.902-36.457-28.672 8.8477-34.887 26.602-29.902 36.457z"/>
  <path d="m425.04 364.79c-25.48 9.2383-30.07 24.473-26.375 33.602 21.953-2.7461 29.734-18.762 26.375-33.602z"/>
  <path d="m452.98 352.8c-22.793 11.199-24.863 26.098-21.168 33.938 23.016-3.9219 25.254-22.457 21.168-33.938z"/>
  <path d="m463.68 373.52c5.7344-1.457 10.809-4.8125 14.391-9.5195 1.2695-1.7812 2.2188-3.7734 2.8008-5.8789 1.3711-6.6016 0.21484-13.477-3.2461-19.266-8.0078 6.1055-15.625 13.945-16.297 23.465-0.23438 2.7227 0.085937 5.4688 0.95312 8.0625 0.32812 1.1016 0.80078 2.1562 1.3984 3.1367z"/>
  <path d="m497.34 322.39c-12.375 15.566-10.527 28-4.3125 34.273 15.402-7.6172 16.129-23.184 4.3125-34.273z"/>
  <path d="m518 334.77c12.32-11.535 8.9023-26.098-4.1445-34.105-9.3516 18.535-3.918 29.734 4.1445 34.105z"/>
  <path d="m537.1 307.44c9.6875-13.945 2.4062-26.434-11.199-31.191-4.4844 18.758 2.9102 28.84 11.199 31.191z"/>
  <path d="m534.18 249.93c-0.61719 20.664 10.078 26.879 16.801 27.273 6.2148-14.844-2.8555-25.203-16.801-27.273z"/>
  <path d="m559.27 244.89c2.6328-15.289-8.1211-23.406-21.559-22.398 3.3555 19.207 14.445 23.52 21.559 22.398z"/>
  <path d="m539.11 195.38c1.3594 4.3438 3.5898 8.3633 6.5508 11.816 1.9336 2.2383 4.4805 3.8633 7.3242 4.6797s5.8633 0.78516 8.6914-0.085937c-0.55859-14.059-11.086-19.207-22.566-16.41z"/>
  <path d="m408.02 358.4c-12.32 6.832-14.281 15.625-13.047 19.824 12.039-4.6484 14.953-13.605 13.047-19.824z"/>
  <path d="m439.94 346.59c-11.199 7.4492-11.594 15.961-10.359 19.602 11.703-4.9297 12.375-14.395 10.359-19.602z"/>
  <path d="m464.69 334.77c-8.2305 7.6172-8.6797 15.625-6.7773 19.656 3.6875-1.5078 6.543-4.5312 7.8398-8.2969 1.2969-3.7617 0.91016-7.9023-1.0625-11.359z"/>
  <path d="m484.85 320.94c-2.168 2.6602-3.5078 5.8984-3.8438 9.3164-0.33984 3.4141 0.33594 6.8555 1.9414 9.8906 3.1406-2.0508 5.1875-5.4141 5.5586-9.1484 0.36719-3.7344-0.97656-7.4336-3.6562-10.059z"/>
  <path d="m501.2 303.02c-2.9102 6.832-3.3047 14.953 2.0703 19.602h0.003907c2.543-2.7812 3.7734-6.5195 3.375-10.27-0.39453-3.7461-2.3789-7.1445-5.4492-9.332z"/>
  <path d="m514.92 280.95c-1.1875 3.2812-1.3242 6.8477-0.39062 10.211 0.92969 3.3594 2.8867 6.3477 5.5977 8.5469 2.0469-3.1172 2.6484-6.9648 1.6523-10.559-1-3.5977-3.5-6.5859-6.8594-8.1992z"/>
  <path d="m532.95 274.4c1.4414-3.3828 1.3594-7.2266-0.22656-10.551-1.5859-3.3203-4.5234-5.8008-8.0625-6.8086-0.5625 3.3945-0.070312 6.8789 1.4141 9.9844 1.4805 3.1055 3.8828 5.6797 6.875 7.375z"/>
  <path d="m541.13 246.68c0.78516-3.5469 0.058594-7.2617-2-10.258s-5.2695-5-8.8633-5.5352c-0.015625 3.4258 1.0156 6.7773 2.957 9.5977 1.9414 2.8242 4.6992 4.9844 7.9062 6.1953z"/>
  <path d="m543.31 211.34c-0.23438-0.5625-0.51562-1.1055-0.83984-1.625-2.4102-3.6016-6.418-5.8125-10.754-5.9336 2.4062 9.6328 8.5117 13.719 12.879 14h0.003906c0.042969-2.2148-0.39844-4.4141-1.2891-6.4414z"/>
  <path d="m529.2 176.01c3.6953 9.2969 10.191 12.488 14.504 12.266-0.28516-3.5547-1.9766-6.8516-4.6992-9.1523-2.7227-2.3008-6.25-3.4219-9.8047-3.1133z"/>
  <path d="m380.13 435.18c1.3516 1.0742 2.7969 2.0273 4.3125 2.8555 4.0625 2.1016 8.5859 3.1562 13.16 3.082 7.5234-0.30859 14.918-2.0586 21.781-5.1523-3.3633-4.2969-7.6016-7.8281-12.43-10.359-4.3789-2.3711-9.3086-3.5312-14.281-3.3633-6.5352 0.41016-12.766 2.9258-17.75 7.168 0.64062 1.1016 1.3906 2.1328 2.2383 3.082 0.92578 0.96094 1.918 1.8594 2.9688 2.6875z"/>
  <path d="m410.65 413.56c1.7891 3.9414 4.8164 7.1836 8.625 9.2422 10.695 6.1055 24.863 2.8008 36.23-2.1836-5.0742-6.8047-12.605-11.352-20.988-12.668-8.3867-1.3203-16.949 0.69531-23.867 5.6094z"/>
  <path d="m443.86 400.46c0.46484 1.0977 1.0664 2.1328 1.793 3.0781 9.4648 12.824 28 9.0156 42.672 1.2891-9.5195-10.809-26.656-16.016-44.465-4.3672z"/>
  <path d="m476.45 384.89c4.1445 9.1289 20.441 16.016 43.848-0.89453-9.9688-8.793-27.051-11.984-43.848 0.89453z"/>
  <path d="m506.8 364.84c5.9375 9.4648 24.527 11.199 41.945-9.0156-10.699-6.2734-27.441-6.0469-41.945 9.0156z"/>
  <path d="m532.34 338.63c7.2812 7.4492 23.465 6.7773 37.07-14.223-10.301-4.5938-26.43-3.4727-37.07 14.223z"/>
  <path d="m584.3 290.14c-12.32-3.9219-26.207 1.1211-33.152 18.145 7.7852 6.1016 22.848 4.0859 33.152-18.145z"/>
  <path d="m564.03 275.24c8.0625 4.7617 22.398 1.3984 28.84-21.168-12.039-2.4609-24.473 3.8086-28.84 21.168z"/>
  <path d="m570.64 240.8c7.7852 3.4727 21.168-0.44922 24.754-23.07-9.8594-1.2344-23.188 3.8047-24.754 23.07z"/>
  <path d="m571.14 205.74c5.6016 1.793 16.297-0.61719 17.641-19.434v0.003906c-5.0977-0.32031-10.062 1.6953-13.492 5.4727-3.4336 3.7812-4.957 8.918-4.1484 13.957z"/>
  <path d="m571.37 179.2c6.5508-3.2461 14.336-15.961 3.0781-35.504h0.003907c-4.707 4.5547-7.6133 10.652-8.1797 17.176-0.56641 6.5234 1.2461 13.035 5.0977 18.328z"/>
  <path d="m544.38 118.89c1.2305 13.832 4.5352 30.352 16.07 38.023h0.003907c1.4609-7.2188 0.71094-14.711-2.1602-21.496-2.8672-6.7852-7.7148-12.543-13.914-16.527z"/>
  <path d="m421.4 432.1c1.9023 3.9766 9.5195 9.5195 24.473 5.9922-1.9023-3.5312-9.7422-11.145-24.473-5.9922z"/>
  <path d="m458.08 416.25c1.7344 3.1914 9.4648 9.1289 25.648 3.6953-3.2461-4.8125-12.375-9.0703-25.648-3.6953z"/>
  <path d="m516.99 399.5c-3.3047-3.5273-12.879-7.2227-26.488 0 2.3516 3.3594 11.367 7.7852 26.488 0z"/>
  <path d="m521.64 377.78c2.9688 2.8555 13.047 5.2656 26.434-5.6016-4.0352-3.0234-14.004-4.2539-26.434 5.6016z"/>
  <path d="m571.48 339.19c-5.6016-2.4062-14.391-1.0078-23.184 9.8555 4.2539 2.5195 13.941 1.457 23.184-9.8555z"/>
  <path d="m588.05 304.25c-3.9219-1.0625-13.551 0-20.719 13.215 3.8086 1.7383 13.047 0.17187 20.719-13.215z"/>
  <path d="m598.3 267.29c-4.9297-0.44922-13.105 2.6875-17.754 15.961 3.3047 0.67188 12.379-1.1797 17.754-15.961z"/>
  <path d="m587.55 247.69c3.2461 0 11.648-3.0781 14.449-17.863-5.6016 0.33594-12.656 5.375-14.449 17.863z"/>
  <path d="m597.97 193.59c-3.2383 1.7422-5.875 4.4219-7.5664 7.6914-1.6875 3.2656-2.3477 6.9688-1.8984 10.617 4.0898-0.39062 10.863-5.6016 11.199-18.984v0.003906c-0.59375 0.17188-1.1758 0.39844-1.7344 0.67188z"/>
  <path d="m592.65 157.3c-5.0977 1.625-10.305 8.0078-8.5117 19.602 3.75-0.89844 9.6875-6.4414 8.5117-19.602z"/>
  <use x="70" y="644" xlink:href="#u"/>
  <use x="90.550781" y="644" xlink:href="#b"/>
  <use x="104.359375" y="644" xlink:href="#d"/>
  <use x="123.347656" y="644" xlink:href="#f"/>
  <use x="142.242188" y="644" xlink:href="#c"/>
  <use x="155.628906" y="644" xlink:href="#d"/>
  <use x="174.617188" y="644" xlink:href="#g"/>
  <use x="204.410156" y="644" xlink:href="#m"/>
  <use x="224.453125" y="644" xlink:href="#l"/>
  <use x="252.453125" y="644" xlink:href="#k"/>
  <use x="272.492188" y="644" xlink:href="#b"/>
  <use x="286.304688" y="644" xlink:href="#f"/>
  <use x="305.195312" y="644" xlink:href="#j"/>
  <use x="321.863281" y="644" xlink:href="#a"/>
  <use x="341.101562" y="644" xlink:href="#e"/>
  <use x="361.03125" y="644" xlink:href="#i"/>
  <use x="390.824219" y="644" xlink:href="#c"/>
  <use x="404.210938" y="644" xlink:href="#f"/>
  <use x="423.101562" y="644" xlink:href="#g"/>
  <use x="443.148437" y="644" xlink:href="#a"/>
  <use x="462.382812" y="644" xlink:href="#h"/>
  <use x="482.316406" y="644" xlink:href="#e"/>
  <use x="502.25" y="644" xlink:href="#i"/>
  <use x="522.292969" y="644" xlink:href="#j"/>
  <use x="538.960937" y="644" xlink:href="#a"/>
  <use x="558.195312" y="644" xlink:href="#b"/>
  <use x="572.003906" y="644" xlink:href="#e"/>
  <use x="70" y="672" xlink:href="#t"/>
  <use x="82.183594" y="672" xlink:href="#b"/>
  <use x="95.992188" y="672" xlink:href="#a"/>
  <use x="115.226562" y="672" xlink:href="#s"/>
  <use x="154.152344" y="672" xlink:href="#c"/>
  <use x="167.535156" y="672" xlink:href="#r"/>
  <use x="187.46875" y="672" xlink:href="#d"/>
  <use x="216.207031" y="672" xlink:href="#q"/>
  <use x="239.640625" y="672" xlink:href="#a"/>
  <use x="258.878906" y="672" xlink:href="#h"/>
  <use x="278.8125" y="672" xlink:href="#e"/>
  <use x="308.492188" y="672" xlink:href="#p"/>
  <use x="329.015625" y="672" xlink:href="#b"/>
  <use x="342.820312" y="672" xlink:href="#a"/>
  <use x="362.058594" y="672" xlink:href="#o"/>
  <use x="371.65625" y="672" xlink:href="#d"/>
  <use x="390.648438" y="672" xlink:href="#n"/>
  <use x="407.242188" y="672" xlink:href="#c"/>
 </g>
</svg>
