<?xml version="1.0" encoding="UTF-8"?>
<svg width="700pt" height="700pt" version="1.1" viewBox="0 0 700 700" xmlns="http://www.w3.org/2000/svg" xmlns:xlink="http://www.w3.org/1999/xlink">
 <defs>
  <symbol id="w" overflow="visible">
   <path d="m18.766-1.125c-0.96875 0.5-1.9805 0.875-3.0312 1.125-1.043 0.25781-2.1367 0.39062-3.2812 0.39062-3.3984 0-6.0898-0.94531-8.0781-2.8438-1.9922-1.9062-2.9844-4.4844-2.9844-7.7344 0-3.2578 0.99219-5.8359 2.9844-7.7344 1.9883-1.9062 4.6797-2.8594 8.0781-2.8594 1.1445 0 2.2383 0.13281 3.2812 0.39062 1.0508 0.25 2.0625 0.625 3.0312 1.125v4.2188c-0.98047-0.65625-1.9453-1.1406-2.8906-1.4531-0.94922-0.3125-1.9492-0.46875-3-0.46875-1.875 0-3.3516 0.60547-4.4219 1.8125-1.0742 1.1992-1.6094 2.8555-1.6094 4.9688 0 2.1055 0.53516 3.7617 1.6094 4.9688 1.0703 1.1992 2.5469 1.7969 4.4219 1.7969 1.0508 0 2.0508-0.14844 3-0.45312 0.94531-0.3125 1.9102-0.80078 2.8906-1.4688z"/>
  </symbol>
  <symbol id="a" overflow="visible">
   <path d="m13.734-11.141c-0.4375-0.19531-0.87109-0.34375-1.2969-0.4375-0.41797-0.10156-0.83984-0.15625-1.2656-0.15625-1.2617 0-2.2305 0.40625-2.9062 1.2188-0.67969 0.80469-1.0156 1.9531-1.0156 3.4531v7.0625h-4.8906v-15.312h4.8906v2.5156c0.625-1 1.3438-1.7266 2.1562-2.1875 0.82031-0.46875 1.8008-0.70312 2.9375-0.70312 0.16406 0 0.34375 0.011719 0.53125 0.03125 0.19531 0.011719 0.47656 0.039062 0.84375 0.078125z"/>
  </symbol>
  <symbol id="b" overflow="visible">
   <path d="m17.641-7.7031v1.4062h-11.453c0.125 1.1484 0.53906 2.0078 1.25 2.5781 0.70703 0.57422 1.7031 0.85938 2.9844 0.85938 1.0312 0 2.082-0.14844 3.1562-0.45312 1.082-0.3125 2.1914-0.77344 3.3281-1.3906v3.7656c-1.1562 0.4375-2.3125 0.76562-3.4688 0.98438-1.1562 0.22656-2.3125 0.34375-3.4688 0.34375-2.7734 0-4.9297-0.70312-6.4688-2.1094-1.5312-1.4062-2.2969-3.3789-2.2969-5.9219 0-2.5 0.75391-4.4609 2.2656-5.8906 1.5078-1.4375 3.582-2.1562 6.2188-2.1562 2.4062 0 4.332 0.73047 5.7812 2.1875 1.4453 1.4492 2.1719 3.3828 2.1719 5.7969zm-5.0312-1.625c0-0.92578-0.27344-1.6719-0.8125-2.2344-0.54297-0.57031-1.25-0.85938-2.125-0.85938-0.94922 0-1.7188 0.26562-2.3125 0.79688s-0.96484 1.2969-1.1094 2.2969z"/>
  </symbol>
  <symbol id="e" overflow="visible">
   <path d="m9.2188-6.8906c-1.0234 0-1.793 0.17188-2.3125 0.51562-0.51172 0.34375-0.76562 0.85547-0.76562 1.5312 0 0.625 0.20703 1.1172 0.625 1.4688 0.41406 0.34375 0.98828 0.51562 1.7188 0.51562 0.92578 0 1.7031-0.32812 2.3281-0.98438 0.63281-0.66406 0.95312-1.4922 0.95312-2.4844v-0.5625zm7.4688-1.8438v8.7344h-4.9219v-2.2656c-0.65625 0.92969-1.3984 1.6055-2.2188 2.0312-0.82422 0.41406-1.8242 0.625-3 0.625-1.5859 0-2.8711-0.45703-3.8594-1.375-0.99219-0.92578-1.4844-2.1289-1.4844-3.6094 0-1.7891 0.61328-3.1016 1.8438-3.9375 1.2383-0.84375 3.1797-1.2656 5.8281-1.2656h2.8906v-0.39062c0-0.76953-0.30859-1.332-0.92188-1.6875-0.61719-0.36328-1.5703-0.54688-2.8594-0.54688-1.0547 0-2.0312 0.10547-2.9375 0.3125-0.89844 0.21094-1.7305 0.52344-2.5 0.9375v-3.7344c1.0391-0.25 2.0859-0.44141 3.1406-0.57812 1.0625-0.13281 2.125-0.20312 3.1875-0.20312 2.7578 0 4.75 0.54688 5.9688 1.6406 1.2266 1.0859 1.8438 2.8555 1.8438 5.3125z"/>
  </symbol>
  <symbol id="d" overflow="visible">
   <path d="m7.7031-19.656v4.3438h5.0469v3.5h-5.0469v6.5c0 0.71094 0.14062 1.1875 0.42188 1.4375s0.83594 0.375 1.6719 0.375h2.5156v3.5h-4.1875c-1.9375 0-3.3125-0.39844-4.125-1.2031-0.80469-0.8125-1.2031-2.1797-1.2031-4.1094v-6.5h-2.4219v-3.5h2.4219v-4.3438z"/>
  </symbol>
  <symbol id="j" overflow="visible">
   <path d="m12.766-13.078v-8.2031h4.9219v21.281h-4.9219v-2.2188c-0.66797 0.90625-1.4062 1.5703-2.2188 1.9844s-1.7578 0.625-2.8281 0.625c-1.8867 0-3.4336-0.75-4.6406-2.25-1.2109-1.5-1.8125-3.4258-1.8125-5.7812 0-2.3633 0.60156-4.2969 1.8125-5.7969 1.207-1.5 2.7539-2.25 4.6406-2.25 1.0625 0 2 0.21484 2.8125 0.64062 0.82031 0.42969 1.5664 1.0859 2.2344 1.9688zm-3.2188 9.9219c1.0391 0 1.8359-0.37891 2.3906-1.1406 0.55078-0.76953 0.82812-1.8828 0.82812-3.3438 0-1.457-0.27734-2.5664-0.82812-3.3281-0.55469-0.76953-1.3516-1.1562-2.3906-1.1562-1.043 0-1.8398 0.38672-2.3906 1.1562-0.55469 0.76172-0.82812 1.8711-0.82812 3.3281 0 1.4609 0.27344 2.5742 0.82812 3.3438 0.55078 0.76172 1.3477 1.1406 2.3906 1.1406z"/>
  </symbol>
  <symbol id="f" overflow="visible">
   <path d="m10.5-3.1562c1.0508 0 1.8516-0.37891 2.4062-1.1406 0.55078-0.76953 0.82812-1.8828 0.82812-3.3438 0-1.457-0.27734-2.5664-0.82812-3.3281-0.55469-0.76953-1.3555-1.1562-2.4062-1.1562-1.0547 0-1.8594 0.38672-2.4219 1.1562-0.55469 0.77344-0.82812 1.8828-0.82812 3.3281 0 1.4492 0.27344 2.5586 0.82812 3.3281 0.5625 0.77344 1.3672 1.1562 2.4219 1.1562zm-3.25-9.9219c0.67578-0.88281 1.4219-1.5391 2.2344-1.9688 0.82031-0.42578 1.7656-0.64062 2.8281-0.64062 1.8945 0 3.4453 0.75 4.6562 2.25 1.207 1.5 1.8125 3.4336 1.8125 5.7969 0 2.3555-0.60547 4.2812-1.8125 5.7812-1.2109 1.5-2.7617 2.25-4.6562 2.25-1.0625 0-2.0078-0.21094-2.8281-0.625-0.8125-0.42578-1.5586-1.0859-2.2344-1.9844v2.2188h-4.8906v-21.281h4.8906z"/>
  </symbol>
  <symbol id="i" overflow="visible">
   <path d="m0.34375-15.312h4.8906l4.125 10.391 3.5-10.391h4.8906l-6.4375 16.766c-0.64844 1.6953-1.4023 2.8828-2.2656 3.5625-0.86719 0.6875-2 1.0312-3.4062 1.0312h-2.8438v-3.2188h1.5312c0.83203 0 1.4375-0.13672 1.8125-0.40625 0.38281-0.26172 0.67969-0.73047 0.89062-1.4062l0.14062-0.42188z"/>
  </symbol>
  <symbol id="h" overflow="visible">
   <path d="m2.5781-20.406h5.25v16.422h9.25v3.9844h-14.5z"/>
  </symbol>
  <symbol id="v" overflow="visible">
   <path d="m2.3594-21.281h4.8906v21.281h-4.8906z"/>
  </symbol>
  <symbol id="g" overflow="visible">
   <path d="m2.1875-5.9688v-9.3438h4.9219v1.5312c0 0.83594-0.007813 1.875-0.015625 3.125-0.011719 1.25-0.015625 2.0859-0.015625 2.5 0 1.2422 0.03125 2.1328 0.09375 2.6719 0.070313 0.54297 0.17969 0.93359 0.32812 1.1719 0.20703 0.32422 0.47266 0.57422 0.79688 0.75 0.32031 0.16797 0.69141 0.25 1.1094 0.25 1.0195 0 1.8203-0.39062 2.4062-1.1719 0.58203-0.78125 0.875-1.8672 0.875-3.2656v-7.5625h4.8906v15.312h-4.8906v-2.2188c-0.74219 0.89844-1.5234 1.5586-2.3438 1.9844-0.82422 0.41406-1.7344 0.625-2.7344 0.625-1.7617 0-3.1055-0.53906-4.0312-1.625-0.92969-1.082-1.3906-2.6602-1.3906-4.7344z"/>
  </symbol>
  <symbol id="u" overflow="visible">
   <path d="m2.3594-15.312h4.8906v15.312h-4.8906zm0-5.9688h4.8906v4h-4.8906z"/>
  </symbol>
  <symbol id="t" overflow="visible">
   <path d="m14.312-14.828v3.7188c-1.043-0.4375-2.0547-0.76562-3.0312-0.98438-0.98047-0.21875-1.9023-0.32812-2.7656-0.32812-0.92969 0-1.6211 0.11719-2.0781 0.34375-0.44922 0.23047-0.67188 0.58984-0.67188 1.0781 0 0.38672 0.17188 0.68359 0.51562 0.89062 0.34375 0.21094 0.95703 0.36719 1.8438 0.46875l0.85938 0.125c2.5078 0.32422 4.1953 0.85156 5.0625 1.5781 0.86328 0.73047 1.2969 1.8711 1.2969 3.4219 0 1.6367-0.60547 2.8672-1.8125 3.6875-1.1992 0.8125-2.9922 1.2188-5.375 1.2188-1.0234 0-2.0742-0.078125-3.1562-0.23438-1.0742-0.15625-2.1797-0.39453-3.3125-0.71875v-3.7188c0.96875 0.48047 1.9609 0.83984 2.9844 1.0781 1.0312 0.23047 2.0781 0.34375 3.1406 0.34375 0.95703 0 1.6758-0.12891 2.1562-0.39062 0.47656-0.26953 0.71875-0.66406 0.71875-1.1875 0-0.4375-0.16797-0.75781-0.5-0.96875-0.33594-0.21875-0.99609-0.38281-1.9844-0.5l-0.85938-0.10938c-2.1797-0.26953-3.7031-0.77344-4.5781-1.5156-0.875-0.73828-1.3125-1.8594-1.3125-3.3594 0-1.625 0.55078-2.8281 1.6562-3.6094 1.1133-0.78906 2.8203-1.1875 5.125-1.1875 0.89453 0 1.8359 0.074219 2.8281 0.21875 1 0.13672 2.082 0.35156 3.25 0.64062z"/>
  </symbol>
  <symbol id="s" overflow="visible">
   <path d="m2.5781-20.406h5.25v20.406h-5.25z"/>
  </symbol>
  <symbol id="c" overflow="visible">
   <path d="m9.6406-12.188c-1.0859 0-1.9141 0.39062-2.4844 1.1719-0.57422 0.78125-0.85938 1.9062-0.85938 3.375s0.28516 2.5938 0.85938 3.375c0.57031 0.77344 1.3984 1.1562 2.4844 1.1562 1.0625 0 1.875-0.38281 2.4375-1.1562 0.57031-0.78125 0.85938-1.9062 0.85938-3.375s-0.28906-2.5938-0.85938-3.375c-0.5625-0.78125-1.375-1.1719-2.4375-1.1719zm0-3.5c2.6328 0 4.6914 0.71484 6.1719 2.1406 1.4766 1.418 2.2188 3.3867 2.2188 5.9062 0 2.5117-0.74219 4.4805-2.2188 5.9062-1.4805 1.418-3.5391 2.125-6.1719 2.125-2.6484 0-4.7148-0.70703-6.2031-2.125-1.4922-1.4258-2.2344-3.3945-2.2344-5.9062 0-2.5195 0.74219-4.4883 2.2344-5.9062 1.4883-1.4258 3.5547-2.1406 6.2031-2.1406z"/>
  </symbol>
  <symbol id="r" overflow="visible">
   <path d="m12.422-21.281v3.2188h-2.7031c-0.6875 0-1.1719 0.125-1.4531 0.375-0.27344 0.25-0.40625 0.6875-0.40625 1.3125v1.0625h4.1875v3.5h-4.1875v11.812h-4.8906v-11.812h-2.4375v-3.5h2.4375v-1.0625c0-1.6641 0.46094-2.8984 1.3906-3.7031 0.92578-0.80078 2.3672-1.2031 4.3281-1.2031z"/>
  </symbol>
  <symbol id="q" overflow="visible">
   <path d="m16.547-12.766c0.61328-0.94531 1.3477-1.6719 2.2031-2.1719 0.85156-0.5 1.7891-0.75 2.8125-0.75 1.7578 0 3.0977 0.54688 4.0156 1.6406 0.92578 1.0859 1.3906 2.6562 1.3906 4.7188v9.3281h-4.9219v-7.9844-0.35938c0.007813-0.13281 0.015625-0.32031 0.015625-0.5625 0-1.082-0.16406-1.8633-0.48438-2.3438-0.3125-0.48828-0.82422-0.73438-1.5312-0.73438-0.92969 0-1.6484 0.38672-2.1562 1.1562-0.51172 0.76172-0.77344 1.8672-0.78125 3.3125v7.5156h-4.9219v-7.9844c0-1.6953-0.14844-2.7852-0.4375-3.2656-0.29297-0.48828-0.8125-0.73438-1.5625-0.73438-0.9375 0-1.6641 0.38672-2.1719 1.1562-0.51172 0.76172-0.76562 1.8594-0.76562 3.2969v7.5312h-4.9219v-15.312h4.9219v2.2344c0.60156-0.86328 1.2891-1.5156 2.0625-1.9531 0.78125-0.4375 1.6406-0.65625 2.5781-0.65625 1.0625 0 2 0.25781 2.8125 0.76562 0.8125 0.51172 1.4258 1.2305 1.8438 2.1562z"/>
  </symbol>
  <symbol id="p" overflow="visible">
   <path d="m17.75-9.3281v9.3281h-4.9219v-7.1094c0-1.3438-0.03125-2.2656-0.09375-2.7656s-0.16797-0.86719-0.3125-1.1094c-0.1875-0.3125-0.44922-0.55469-0.78125-0.73438-0.32422-0.17578-0.69531-0.26562-1.1094-0.26562-1.0234 0-1.8242 0.39844-2.4062 1.1875-0.58594 0.78125-0.875 1.8711-0.875 3.2656v7.5312h-4.8906v-21.281h4.8906v8.2031c0.73828-0.88281 1.5195-1.5391 2.3438-1.9688 0.83203-0.42578 1.75-0.64062 2.75-0.64062 1.7695 0 3.1133 0.54688 4.0312 1.6406 0.91406 1.0859 1.375 2.6562 1.375 4.7188z"/>
  </symbol>
  <symbol id="o" overflow="visible">
   <path d="m2.5781-20.406h5.875l7.4219 14v-14h4.9844v20.406h-5.875l-7.4219-14v14h-4.9844z"/>
  </symbol>
  <symbol id="n" overflow="visible">
   <path d="m17.75-9.3281v9.3281h-4.9219v-7.1406c0-1.3203-0.03125-2.2344-0.09375-2.7344s-0.16797-0.86719-0.3125-1.1094c-0.1875-0.3125-0.44922-0.55469-0.78125-0.73438-0.32422-0.17578-0.69531-0.26562-1.1094-0.26562-1.0234 0-1.8242 0.39844-2.4062 1.1875-0.58594 0.78125-0.875 1.8711-0.875 3.2656v7.5312h-4.8906v-15.312h4.8906v2.2344c0.73828-0.88281 1.5195-1.5391 2.3438-1.9688 0.83203-0.42578 1.75-0.64062 2.75-0.64062 1.7695 0 3.1133 0.54688 4.0312 1.6406 0.91406 1.0859 1.375 2.6562 1.375 4.7188z"/>
  </symbol>
  <symbol id="m" overflow="visible">
   <path d="m2.5781-20.406h8.7344c2.5938 0 4.582 0.57812 5.9688 1.7344 1.3945 1.1484 2.0938 2.7891 2.0938 4.9219 0 2.1367-0.69922 3.7812-2.0938 4.9375-1.3867 1.1562-3.375 1.7344-5.9688 1.7344h-3.4844v7.0781h-5.25zm5.25 3.8125v5.7031h2.9219c1.0195 0 1.8047-0.25 2.3594-0.75 0.5625-0.5 0.84375-1.2031 0.84375-2.1094 0-0.91406-0.28125-1.6172-0.84375-2.1094-0.55469-0.48828-1.3398-0.73438-2.3594-0.73438z"/>
  </symbol>
  <symbol id="l" overflow="visible">
   <path d="m2.3594-15.312h4.8906v15.031c0 2.0508-0.49609 3.6172-1.4844 4.7031-0.98047 1.082-2.4062 1.625-4.2812 1.625h-2.4219v-3.2188h0.85938c0.92578 0 1.5625-0.21094 1.9062-0.625 0.35156-0.41797 0.53125-1.2461 0.53125-2.4844zm0-5.9688h4.8906v4h-4.8906z"/>
  </symbol>
  <symbol id="k" overflow="visible">
   <path d="m14.719-14.828v3.9844c-0.65625-0.45703-1.3242-0.79688-2-1.0156-0.66797-0.21875-1.3594-0.32812-2.0781-0.32812-1.3672 0-2.4336 0.40234-3.2031 1.2031-0.76172 0.79297-1.1406 1.9062-1.1406 3.3438 0 1.4297 0.37891 2.543 1.1406 3.3438 0.76953 0.79297 1.8359 1.1875 3.2031 1.1875 0.75781 0 1.4844-0.10938 2.1719-0.32812 0.6875-0.22656 1.3203-0.56641 1.9062-1.0156v4c-0.76172 0.28125-1.5391 0.48828-2.3281 0.625-0.78125 0.14453-1.5742 0.21875-2.375 0.21875-2.7617 0-4.9219-0.70703-6.4844-2.125-1.5547-1.4141-2.3281-3.3828-2.3281-5.9062 0-2.5312 0.77344-4.5039 2.3281-5.9219 1.5625-1.4141 3.7227-2.125 6.4844-2.125 0.80078 0 1.5938 0.074219 2.375 0.21875 0.78125 0.13672 1.5547 0.35156 2.3281 0.64062z"/>
  </symbol>
 </defs>
 <g>
  <path d="m487.29 105.42-0.99609-0.57812-1.1133 0.30078-6.2422 1.6641-4.082-3.1406-9.6602-7.0234-10.137-6.9062-10.465-6.8828-10.871-6.7383-11.266-6.668-11.652-6.5586-11.977-6.4297-12.352-6.3398-12.734-6.2188-12.957-6.0859-8.9336-4.0156 0.80078-3.9023 0.40234-1.9727-1.7344-1.0195-8.2695-4.8086-1.0117-0.58984-1.1367 0.30859-6.6953 1.8281-1.6562 0.45312-0.34766 1.6914-15.125 73.992-94.125 54.312-0.13281 0.078125-0.12891 0.09375-1.5781 1.1641-0.19531 0.14062-0.16797 0.17969-1.6641 1.7461-0.15625 0.16406-0.12891 0.18359-1.457 2.1211-0.125 0.17969-0.09375 0.20312-1.082 2.2852-0.09375 0.19141-0.0625 0.20703-0.70703 2.3672-0.074219 0.24609-0.027344 0.25781-0.20703 1.9531-0.015625 0.14453v3.582l1.3906 0.8125 8.2695 4.8203 1.4062 0.81641 1.4062-0.81641 3.4062-1.9727v19.711l-28.066 16.191-1.3984 0.8125v11.254l1.3945 0.8125 6.5469 3.7969 68.422 147.42-10.605 10.605-24.488-14.102-0.64844-0.37109h-2.8594l-0.64453 0.35938-3.4492 1.9609-0.99609 0.57031-0.3125 1.1016-1.3672 4.8164-0.10547 0.375v8.4102l1.3984 0.8125 18.742 10.809-45.383 45.422-2.5742 2.582 3.1523 1.8203 5.5273 3.1992 1.4062 0.81641 1.4062-0.81641 6.8984-4.0312 0.3125-0.17969 0.25781-0.25781 36.316-36.27 6.9648-4.0391 36.445 21.066 47.59 102.52 0.37109 0.80469 0.76562 0.44141 5.5273 3.1992 1.4062 0.81641 1.4062-0.81641 6.8867-3.9922 2.2188-1.2812-1.0742-2.3242-34.203-73.773 81.453-47.062 31.719 68.336 0.37109 0.80078 0.76172 0.44141 5.5234 3.2031 1.4062 0.81641 1.3984-0.81641 6.8984-3.9922 2.2188-1.2812-1.082-2.3242-71.281-153.66 66.723-66.77 8.25-4.7617 1.0938-0.63281 0.25391-1.2383 27.301-133.41 0.41016-1.9805-1.7539-1.0078zm-1.6641 4.5273 3.4375 1.9727-1.3086 0.34766-3.4336-1.9727zm-5.0547 2.7227 4.7031 2.6992-14.547 71.242-4.6992-2.7383 1.8359-9.0117zm-104.62 130.26c-0.042968 0.035156-0.078124 0.078124-0.11719 0.11328-0.015625 0.011719-0.042969 0-0.066406 0.011719l-1.5742 1.1719c-0.054688 0.035157-0.042969 0.10156-0.089844 0.14063-0.042968 0.039062-0.11719 0.023437-0.15234 0.066406l-1.707 1.7461c-0.023437 0.023437-0.011719 0.0625-0.035156 0.085937-0.054687 0.066406-0.12891 0.11328-0.17969 0.17969l-1.418 2.0781c-0.015625 0.027343 0 0.0625-0.015625 0.085937-0.039063 0.066406-0.10156 0.10547-0.12891 0.17188l-1.1211 2.3281c-0.027344 0.054687-0.023438 0.11328-0.042969 0.16797-0.023437 0.050781-0.0625 0.089844-0.078125 0.14062l-0.65625 2.3242c-0.015625 0.050781-0.003906 0.10156-0.011719 0.14453-0.011719 0.050781-0.042969 0.089843-0.054687 0.13281l-0.09375 0.73828-4.5234-2.6133v-0.66797l0.14062-1.6133 0.59766-1.9805 0.99609-2.0664 1.2422-1.8594 1.4688-1.5078 1.3555-1.0039 38.109-21.973 56.039-32.352 4.3672 2.5469zm8.2031 3.7461v34.422l-0.23047 0.13281v-34.422zm-9 73.055-37.387 37.34-39.801 23.023-2.1523-4.6641 37.34-37.336 39.82-22.988zm-0.17969-18.43 3.4883-2 1.082 2.3398-3.4883 2.0156zm-85.906 78.535 3.5273-2.0508 2.7148 5.9023v0.003906l1.6172 3.4883 0.25391 0.54297 10.473 22.566-6.0156-3.5zm1.0859 20.34-5.1289-2.9609 2.9609-1.6953zm13.719-9.0156c-0.054688 0.074219-0.15625 0.078125-0.20703 0.15625-0.11719 0.19141-0.16797 0.40234-0.21094 0.60938l-1.9648-4.2266 13.434-7.7383-10.953 10.949c-0.0625 0.070313-0.046875 0.17578-0.097656 0.25zm24.141-18.742 7.4648-4.3242-24.953 24.953-1.9805-1.1523zm-35.062-96.652 1.2695 0.70703c0.003906 0 0.011718 0 0.015625 0.003906 0.011719 0.003907 0.011719 0.015626 0.023437 0.015626l11.387 5.9453c0.003906 0 0.015625 0 0.027344 0.003906s0.023437 0.015625 0.035156 0.027344l11.391 5.4492h0.027344c0.003906 0.011719 0.011718 0.015625 0.023437 0.023437l11.305 4.9883c0.011719 0.003906 0.023437 0 0.035156 0.011718 0.011719 0 0.015625 0.011719 0.027344 0.015625l11.266 4.4844c0.011718 0.003906 0.023437 0.003906 0.027344 0.003906 0.011718 0.003907 0.015624 0.011719 0.027343 0.015626l6.5195 2.3594v5.0664c0 0.085937 0.039063 0.15234 0.042969 0.23438 0.015625 0.12891 0.035157 0.26172 0.085938 0.39062 0.039062 0.11719 0.10156 0.22266 0.15625 0.33594 0.0625 0.10547 0.125 0.21094 0.20703 0.30859 0.089844 0.10547 0.19141 0.18359 0.30078 0.26953 0.066407 0.050781 0.11328 0.11719 0.17969 0.15625l0.085937 0.050781-57.059 57.062-31.645-68.191zm-37.758 12.102-24.375-52.465 6.2812 4.7266c0.003906 0.011719 0.015625 0.003906 0.023438 0.011719 0.003906 0.003906 0.003906 0.011719 0.011718 0.015625l11.34 8.1406c0.011719 0.003906 0.023438 0 0.035156 0.011719 0.003906 0.003906 0.003906 0.015625 0.011719 0.023437l11.344 7.6484c0.011719 0.003906 0.023437 0.003906 0.035156 0.011719 0.003907 0.003906 0.003907 0.015624 0.015625 0.023437l11.43 7.2305c0.003906 0.003906 0.011718 0.003906 0.015625 0.003906 0.011719 0.003906 0.011719 0.011719 0.023437 0.023438l11.391 6.8164c0.003907 0 0.015625 0 0.023438 0.003906 0.011719 0.003906 0.011719 0.015625 0.023437 0.015625l1.6016 0.89453zm86.02 4.3477-11.207-4.5078-11.223-4.957-11.379-5.4375-11.289-5.8516-11.352-6.332-11.324-6.7812-11.43-7.2305-11.277-7.6367-11.277-8.0234-11.246-8.5078-8.9492-7.0938 99.766-57.574 2.4062 1.8828 7.7109 6.1836c0.011719 0.011719 0.023437 0.003906 0.035156 0.011719 0.011719 0.011719 0.003906 0.023437 0.015625 0.035156l11.305 8.4766c0.003906 0 0.011718 0 0.015624 0.003906 0.003907 0.003906 0.003907 0.015625 0.011719 0.015625l11.312 8.1016c0.011719 0.011718 0.023438 0.003906 0.035157 0.011718 0.003906 0.011719 0.003906 0.015625 0.011718 0.023438l11.391 7.6875c0.011719 0.003906 0.023438 0 0.035157 0.011718 0.003906 0 0 0.011719 0.011718 0.023438l11.387 7.2305c0.003906 0.003906 0.011719 0.003906 0.023437 0.011719 0.011719 0 0.011719 0.011718 0.023438 0.023437l11.391 6.8164c0.003906 0 0.015625 0 0.027344 0.003907 0.011719 0.003906 0.011719 0.015624 0.023437 0.023437l11.43 6.3633c0.011718 0.003906 0.023437 0 0.023437 0.003906 0.011719 0.003907 0.023438 0.015626 0.035157 0.023438l5.0508 2.6328-35.102 20.242c-0.042968 0.023438-0.074218 0.066406-0.11719 0.10156-0.015625 0.011719-0.050781 0-0.066407 0.015626l-1.5781 1.1602c-0.050782 0.039062-0.042969 0.10547-0.089844 0.14453-0.042969 0.039063-0.11719 0.023437-0.15625 0.066406l-1.7031 1.7461c-0.023438 0.023437-0.011719 0.066406-0.035157 0.089844-0.066406 0.066406-0.14062 0.11328-0.19141 0.18359l-1.418 2.1211c-0.015626 0.023438 0 0.054688-0.015626 0.078125-0.039062 0.0625-0.09375 0.10156-0.11719 0.16406l-1.1211 2.3281c-0.023437 0.042969-0.023437 0.10156-0.039062 0.14453s-0.054688 0.085938-0.074219 0.12891l-0.70703 2.3242c-0.023438 0.074219-0.003907 0.14062-0.015625 0.20703-0.015625 0.066406-0.054688 0.125-0.0625 0.19531l-0.16406 1.9141c-0.003906 0.023438 0.011719 0.050781 0.003907 0.078125 0 0.035156-0.011719 0.054688-0.011719 0.089844v1.8711c0 0.089844 0.035156 0.15625 0.042969 0.24219 0.023437 0.12891 0.035156 0.26172 0.085937 0.38672 0.039063 0.125 0.10156 0.23047 0.16406 0.33984 0.0625 0.10547 0.11719 0.20703 0.20312 0.30078 0.089844 0.10547 0.19141 0.18359 0.30078 0.26953 0.066406 0.050782 0.11328 0.11719 0.17969 0.15625l8.2695 4.7812c0.003907 0.003906 0.011719 0 0.011719 0.003906 0.035157 0.015626 0.066407 0.011719 0.09375 0.027344 0.26953 0.12891 0.55469 0.23047 0.86719 0.23047h0.011719 0.011718c0.32031 0 0.59766-0.09375 0.86328-0.23047 0.035156-0.011718 0.066406-0.011718 0.10156-0.027344l3.4883-1.9922c0.078125-0.042969 0.11719-0.11328 0.17969-0.15625 0.11719-0.085937 0.21094-0.16406 0.30859-0.26953 0.085938-0.10156 0.14453-0.19531 0.20703-0.30859s0.125-0.21094 0.16406-0.33203c0.042969-0.12891 0.0625-0.26172 0.085938-0.39844 0.011718-0.085937 0.042968-0.15625 0.042968-0.24219v-1.5l0.066407-0.82422 0.12891-0.41406v25.426l-27.66 15.941zm-101.56-94.266v-34.43l0.23438-0.13281v34.422zm89.062-87.781c-0.035156-0.089844-0.039062-0.18359-0.089843-0.26953-0.011719-0.015626-0.027344-0.027344-0.039063-0.042969-0.078125-0.125-0.18359-0.22266-0.29297-0.33594-0.078125-0.078125-0.13281-0.16406-0.22266-0.22266-0.089844-0.074219-0.20312-0.10547-0.30859-0.14453-0.12891-0.066406-0.24609-0.13281-0.38672-0.16797-0.015626-0.003906-0.035157-0.015625-0.054688-0.023437-0.023438-0.003907-0.050781 0.003906-0.074219 0l1.5625-0.90234 0.011719-0.011719c0.0625-0.035156 0.10156-0.10156 0.15625-0.13281 0.0625-0.042968 0.10547-0.09375 0.15625-0.13281 0.125-0.11719 0.24219-0.23047 0.33203-0.37109 0.015625-0.027344 0.054688-0.039062 0.074219-0.066406 0.042969-0.078125 0.042969-0.16406 0.078125-0.24219 0.042969-0.11328 0.09375-0.20703 0.11719-0.32031 0.003907-0.015625 0.015626-0.023438 0.023438-0.035156l1.5078-7.3594c0.042969 0.023437 0.074219 0.066406 0.11719 0.085937l1.9922 0.85547-12.02 58.805-0.95703-0.75h-0.003906c-0.32422-0.25391-0.71875-0.35937-1.1211-0.37891l9.5664-46.727c0.015625-0.09375-0.003906-0.18359 0-0.27344 0.011719-0.14453 0.027344-0.28516 0-0.42969-0.011719-0.14844-0.066406-0.27734-0.125-0.40625zm8.3359-8.2148 7.5703 3.3984 12.859 6.0312c0.003906 0.003907 0.003906 0.003907 0.003906 0.003907l12.633 6.1953 12.234 6.2773 0.003906 0.003906 11.922 6.4414h0.003907l11.582 6.4922 11.16 6.6016 10.809 6.7031 10.383 6.7812 9.9609 6.8711 9.6484 6.9375 5.957 4.5742-1.6953 8.3203-55.328 31.941-7.2734-3.7852-11.355-6.3164-11.352-6.793-11.316-7.1953-11.324-7.6445-11.312-8.1016-0.003906-0.003906-11.246-8.4297-6.7656-5.4258zm-21.09 52.754-4.6992-2.7109 6.8984-33.785 5.9766-3.4492zm-8.6484-2.9805-63.504 36.645v-27.227l69.816-40.32zm1.7422 3.5234 4.3555 2.5156-69.598 40.203v-5.0664zm41.238 145.02 4.3516 2.5156v3.4844l-3.0391-1.7422-1.3086-0.76172zm5.7227 14.945 6.9883-7.0117 5.3438-3.0742 1.0703 2.3281zm-3.7695-18.344 23.832-13.738c0.015626 0.027344 0.039063 0.054688 0.054688 0.085938 0.066406 0.11328 0.125 0.21094 0.20703 0.30859 0.089844 0.10547 0.19531 0.18359 0.30859 0.26953 0.066406 0.050781 0.11328 0.11719 0.18359 0.15625l3.2812 1.875-23.504 13.57zm27.52-15.77v-31.898l0.23047-0.12891v32.16zm64.832-48.578-11.176-4.4922-9.6055-4.2188 34.07-19.691-6.3438 30.879-0.011718 0.003906zm2.457 5.0508-58.973 34.082v-27.215l31.551-18.207 0.86328 0.39844c0.003907 0.003906 0.015625 0.003906 0.023438 0.003906 0.003906 0 0.011719 0.011719 0.015625 0.011719l11.344 4.9883c0.011718 0.003907 0.015625 0 0.027344 0.003907 0.011718 0.003906 0.023437 0.015625 0.035156 0.015625l11.258 4.5312c0.011719 0.011718 0.023438 0.003906 0.039063 0.011718 0.011719 0 0.015625 0.011719 0.035156 0.023438zm-58.973 38.609 64.605-37.336v-0.003906l0.57812-0.3125 4.4023 2.5273-69.586 40.168zm67.402-40.895 6.9375-33.785 5.9766-3.4453-8.1875 39.957zm-98.008-192.79 12.93 6.0703 12.582 6.125 12.215 6.2891 11.973 6.4414h0.003906l11.484 6.4844v0.003906l11.246 6.6016 10.793 6.6914 10.406 6.8438 9.9297 6.832 9.6367 6.9336 5.9648 4.582-11.973 58.609-4.4961-3.4492c-0.003906-0.003906-0.023437 0-0.027343-0.011719-0.011719-0.003906-0.003907-0.023437-0.015625-0.027344l-9.6484-6.9375c-0.011718-0.003906-0.023437 0-0.023437-0.003906-0.011719-0.003906-0.011719-0.011719-0.011719-0.015625l-10.02-6.8984c-0.003907-0.003906-0.011719-0.003906-0.023438-0.011718l-0.015625-0.015625-10.434-6.8164c-0.003906-0.003906-0.011718 0-0.015624-0.003906-0.011719 0-0.011719-0.011718-0.023438-0.023437l-10.848-6.7266c-0.003906-0.003906-0.011719 0-0.015625-0.003906-0.003907-0.003906-0.011719-0.015625-0.023438-0.015625l-11.176-6.6211c-0.011719 0-0.015625 0-0.023438-0.003906-0.011718-0.003906-0.011718-0.011719-0.023437-0.015625l-11.637-6.5195c0-0.003907-0.003906-0.003907-0.011718-0.003907-0.003907-0.003906-0.011719-0.011718-0.011719-0.015624l-11.934-6.4414c-0.003906 0-0.011719 0-0.023437-0.003906-0.003907-0.003906-0.011719-0.003906-0.011719-0.011719l-12.305-6.3164h-0.015625c-0.003906-0.003906-0.011718-0.011719-0.015625-0.015625l-12.633-6.1953c-0.011719 0-0.015625 0-0.023438-0.003906-0.003906-0.003906-0.003906-0.003906-0.011719-0.003906l-12.93-6.0703h-0.011719c-0.003906 0-0.003906-0.011719-0.011718-0.011719l-9.8047-4.4062h-0.011719c0-0.003907-0.003906-0.011719-0.011719-0.011719l-1.9922-0.86328 12.035-58.93zm-16.105-15.871 3.4492 2.0039-1.3164 0.34766-3.4766-1.9883zm-5.0391 2.7617 4.6914 2.6836-14.547 71.215-4.6914-2.7109zm-106.39 131.48c-0.050782 0.042969-0.042969 0.11719-0.09375 0.15625-0.050782 0.039062-0.125 0.027344-0.16797 0.074219l-1.707 1.793c-0.023438 0.023437-0.011719 0.066406-0.035157 0.089843-0.054687 0.066407-0.125 0.10547-0.17188 0.17188l-1.4102 2.1172c-0.015625 0.023437 0 0.050781-0.011719 0.074218-0.035156 0.054688-0.089843 0.09375-0.11719 0.15234l-1.1211 2.2852c-0.027344 0.054688-0.023438 0.11719-0.042969 0.17969-0.023437 0.050781-0.0625 0.09375-0.078125 0.14453l-0.66797 2.3281c-0.011719 0.042969 0 0.089844-0.011719 0.14062s-0.039063 0.089844-0.050781 0.14062l-0.10156 0.76562-4.5195-2.6367v-0.59766l0.17969-1.6758 0.60938-2.043 0.95703-2.0234 1.2656-1.8438 1.4492-1.5195 1.3438-0.99219 94.141-54.324 4.3555 2.5156-92.281 53.289c-0.042969 0.035156-0.074219 0.078125-0.11328 0.10547-0.015625 0.011718-0.042969 0-0.0625 0.015624zm5.7969 4.9062v32.16l-0.23437-0.13281v-31.898zm-25.352 57.215-4.3438-2.5195v-3.4844l4.3438 2.5352zm-2.4023-9.4023 23.84-13.746c0.015625 0.027344 0.039062 0.050782 0.054688 0.078125 0.0625 0.11328 0.125 0.21094 0.20703 0.30859 0.089843 0.10547 0.19531 0.18359 0.30078 0.26953 0.066406 0.050782 0.11328 0.11719 0.18359 0.15625l3.3086 1.8945-23.535 13.598zm6.3242 9.3945v-0.57031c0.074219 0.089843 0.14453 0.16797 0.23438 0.24219 0.015625 0.015625 0.011719 0.042969 0.027344 0.054688l0.089844 0.078125zm3.2344 2.668 0.41016-0.23438 6.1953 4.9102 28.398 61.129 0.24219 0.52734v0.003907l1.6172 3.5352c0 0.003906 0 0.003906 0.003907 0.011718l33.008 71.113-3.0352 3.0352zm64.848 151.57c0.003906-0.011718 0-0.023437 0.011719-0.035156 0.34766-0.34766 0.53125-0.81641 0.54297-1.3086 0-0.023437 0.011718-0.042968 0.011718-0.066406 0-0.27344-0.054687-0.54297-0.17187-0.80469l-0.24219-0.51562c0.003906 0.003906 0.023438 0.003906 0.027344 0.011718 0.35156 0.29688 0.76562 0.50781 1.2266 0.50781 0.27344 0 0.55859-0.066406 0.82422-0.18359 0.19531-0.089843 0.34766-0.23047 0.5-0.36328 0.015625-0.015625 0.042969-0.003906 0.0625-0.027344l5.9805-5.9805 59.785-59.793 2 1.1406-67.801 67.844c-0.003907 0.011718-0.003907 0.023437-0.011719 0.035156-0.035156 0.039062-0.066406 0.078125-0.10156 0.11719-0.085938 0.10156-0.13281 0.20703-0.19531 0.32422-0.0625 0.11328-0.125 0.21094-0.16406 0.33203-0.039062 0.125-0.042968 0.24609-0.054687 0.37109-0.003906 0.0625-0.023437 0.11328-0.027344 0.16797 0 0.023438-0.011719 0.042969-0.011719 0.066406 0 0.042969 0.003907 0.089844 0.011719 0.12891 0.003907 0.12891 0.054688 0.25391 0.089844 0.37891 0.027344 0.10156 0.027344 0.19531 0.074219 0.29688l0.16406 0.33984c-0.32031-0.22266-0.68359-0.35938-1.0703-0.37109-0.027344 0-0.042969-0.011719-0.074219-0.011719-0.26953 0-0.53906 0.054687-0.79688 0.16797-0.20312 0.09375-0.35938 0.23047-0.50781 0.37109-0.015626 0.015624-0.042969 0.003906-0.0625 0.027343l-9.7031 9.6992-2.0156-1.1719zm2.0664 10.656-2.5156 1.4336 2.1719-2.168zm-44.672-10.695 1.3477-0.76172 25.379 14.609 5.5117 3.1914v0.003907l1.832 1.0742h0.003906c0.003906 0.003906 0.003906 0.011718 0.011719 0.011718l1.7461 1.0039 3.9023 2.2383v0.003906l0.58203 0.33203 13.453 7.7656 0.003906 0.003906 5.5 3.1602 0.050781 0.027343 0.003906 0.003907 11.934 6.9375 11.188 6.457-5.1641 0.47656-77.777-44.902zm82.574 51.973v2.4258l-4.3516 0.41016v-2.4219zm-108.26 19.586-2.0156-1.1641 45.098-45.129 2.0312 1.1914zm99.98-17.965-2.3906-1.3672h-0.003907l-5.4922-3.1797s-0.003906-0.003906-0.003906-0.011719l-38.617-22.309-0.59766-0.35937c-0.003906-0.003907-0.011719 0-0.023438-0.011719-0.003906 0-0.011718-0.011719-0.015625-0.011719l-1.7031-0.96484h-0.003906l-1.8906-1.0469-5.4805-3.2188s-0.003906 0-0.003906-0.003906h-0.003906l-20.922-12.066v-1.875l77.164 44.574-0.007812 1.8516zm48.973 98.871-3.4883 2.0234-44.469-95.801 0.48828 0.32422c0.33594 0.22266 0.71094 0.33594 1.0859 0.33594 0.066406 0 0.12891-0.003906 0.19531-0.011718l2.8555-0.28516 6.8945 14.867 0.25391 0.54297v0.003906l1.6641 3.5391zm-33.789-82.141-5.4375-11.727c0.19141-0.042968 0.375-0.089844 0.53906-0.18359 0.011719 0 0.023437 0 0.035156-0.003906l0.91797-0.54297s0.003906-0.003907 0.003906-0.003907l3.4258-1.9805c0.066407-0.042968 0.11328-0.11328 0.17188-0.15234 0.11719-0.089844 0.22266-0.16406 0.3125-0.27344 0.085938-0.10156 0.14062-0.19531 0.20703-0.30859 0.0625-0.10547 0.11719-0.20703 0.16406-0.33594 0.042969-0.125 0.0625-0.25781 0.078125-0.38672 0.011719-0.089843 0.050781-0.15234 0.050781-0.24219v-6.3633c0-0.039062-0.023437-0.078124-0.023437-0.11719-0.003907-0.12891-0.039063-0.25391-0.078125-0.375-0.035156-0.13281-0.066406-0.26172-0.12891-0.37891-0.015626-0.035157-0.015626-0.074219-0.035157-0.10547-0.039062-0.074219-0.10547-0.11328-0.15234-0.17188-0.003907-0.003906-0.011719-0.015625-0.015626-0.023437-0.015624-0.035157-0.003906-0.066407-0.027343-0.089844l-1.3672-1.6172c-0.015625-0.023437-0.050781-0.023437-0.074219-0.039062-0.015624-0.023438-0.042968-0.039063-0.066406-0.0625-0.09375-0.10156-0.18359-0.18359-0.29688-0.26172-0.035156-0.023437-0.050781-0.054687-0.085937-0.078125l-13.797-7.9648-9.1406-19.699 5.4258 3.1602s0.003906 0 0.011719 0.003906c0.23438 0.13281 0.50781 0.18359 0.78516 0.21094 0.066406 0.011718 0.125 0.054687 0.19141 0.054687 0.11328 0 0.21875-0.074219 0.32422-0.089844 0.21875-0.042969 0.44141-0.0625 0.63672-0.16797v-0.003906l6.9883-3.9805c0.12891-0.078126 0.21875-0.18359 0.32031-0.28516 0.027343-0.023437 0.066406-0.011719 0.09375-0.039062l61.359-61.441 31.645 68.152zm130.26 26.496-3.4961 2.0234-70.484-151.91 3.5234-2zm-77.898-152.09c-0.011719 0.011719-0.003906 0.023438-0.011719 0.035157-0.039062 0.035156-0.074218 0.078125-0.10547 0.11328-0.085938 0.10156-0.125 0.20703-0.19141 0.32031-0.054688 0.11328-0.125 0.21875-0.16406 0.33984-0.039063 0.125-0.042969 0.24219-0.0625 0.37109-0.003906 0.054688-0.027344 0.11328-0.027344 0.16797 0 0.027343-0.011719 0.050781-0.011719 0.074219 0 0.042968 0.011719 0.085937 0.011719 0.11719 0.011719 0.12891 0.054688 0.25391 0.09375 0.37891 0.027344 0.10156 0.027344 0.20312 0.074219 0.30078l0.19141 0.41016c-0.32422-0.23438-0.70703-0.375-1.1016-0.39062-0.027344 0-0.050782-0.011719-0.085938-0.011719-0.26172 0-0.53125 0.054687-0.78906 0.16797-0.19531 0.09375-0.35938 0.23047-0.51562 0.37109-0.011719 0.015624-0.042969 0.003906-0.054688 0.027343l-32.77 32.766-1.3203-1.8555 34.125-34.082c0.003906-0.011718 0-0.027344 0.011718-0.035156 0.33984-0.35156 0.52734-0.81641 0.53906-1.3008 0.003906-0.035157 0.015625-0.050781 0.015625-0.078125-0.003906-0.27344-0.054688-0.54688-0.17969-0.8125l-0.20312-0.4375c0.34766 0.26172 0.73828 0.44922 1.1719 0.44922 0.28125 0 0.55859-0.0625 0.82422-0.18359 0.19531-0.089844 0.34766-0.23047 0.5-0.36328 0.015625-0.015626 0.050781-0.003907 0.0625-0.027344l5.9922-5.9805 14.449-14.449 7.4258-4.2891zm-2.0273-10.637 3.4961-2 0.79688 1.6953-3.0312 3.0234zm6.9023-3.9609 2.457-1.4219-2.1211 2.1211zm25.348-24.355-28.879 16.711-1.082-2.3359 36.902-21.32zm8.3047 0.42187-1.3008-1.8828 13.07-13.07 7.5391-4.3516zm44.988-38.641-7.8047 4.5078h-0.003907l-6.9258 3.9883c0 0.003907-0.003906 0-0.003906 0.003907l-20.652 11.922h-0.011719l-51.375 29.688-6.8867 3.9414s0 0.003906-0.003906 0.003906h-0.011719l-3.1992 1.8711c0 0.003906-0.003906 0.011719-0.011719 0.011719l-7.4141 4.2656-0.015625 0.003907-2.2383 1.3086v-3.4727l103.98-60.02h0.003907l0.011718-0.011719c0.0625-0.035156 0.10547-0.09375 0.15625-0.13281 0.0625-0.042969 0.10547-0.09375 0.15625-0.14062 0.125-0.11719 0.24609-0.23438 0.33594-0.375 0.023437-0.023438 0.054687-0.035157 0.066406-0.066407 0.042969-0.066406 0.042969-0.14062 0.078125-0.21875 0.042969-0.11328 0.10156-0.20703 0.125-0.33203 0.003906-0.011719 0.015625-0.023437 0.023437-0.035156l9.6055-46.883c0.015625-0.09375-0.003906-0.17969 0-0.28125 0.011719-0.14062 0.027344-0.28516 0.003907-0.42578-0.027344-0.14062-0.089844-0.27344-0.14063-0.40234-0.035156-0.089844-0.035156-0.17188-0.089843-0.26172-0.011719-0.015625-0.023438-0.023438-0.035157-0.042969-0.085937-0.12891-0.19531-0.23047-0.30859-0.33984-0.074219-0.078125-0.12891-0.15625-0.20703-0.21875-0.10156-0.066406-0.21094-0.10547-0.32031-0.15234-0.12891-0.066406-0.25391-0.12891-0.37891-0.16406-0.023438 0-0.035157-0.015625-0.054688-0.023438h-0.011719l1.4883-0.86328h0.003906l0.015625-0.011719c0.066406-0.035156 0.10156-0.10156 0.15625-0.13281 0.0625-0.042969 0.10547-0.09375 0.15625-0.13281 0.125-0.11719 0.24219-0.23047 0.33203-0.37109 0.023438-0.023438 0.054688-0.035156 0.066406-0.066406 0.042969-0.074219 0.050782-0.15234 0.085938-0.23047 0.050781-0.11328 0.10547-0.21094 0.125-0.33203 0.003906-0.015626 0.023438-0.023438 0.023438-0.035157l15.137-74.121 2.457-0.65625z"/>
  <use x="70" y="644" xlink:href="#w"/>
  <use x="90.550781" y="644" xlink:href="#a"/>
  <use x="104.359375" y="644" xlink:href="#b"/>
  <use x="123.347656" y="644" xlink:href="#e"/>
  <use x="142.242188" y="644" xlink:href="#d"/>
  <use x="155.628906" y="644" xlink:href="#b"/>
  <use x="174.617188" y="644" xlink:href="#j"/>
  <use x="204.410156" y="644" xlink:href="#f"/>
  <use x="224.453125" y="644" xlink:href="#i"/>
  <use x="252.453125" y="644" xlink:href="#h"/>
  <use x="270.292969" y="644" xlink:href="#v"/>
  <use x="279.890625" y="644" xlink:href="#g"/>
  <use x="299.824219" y="644" xlink:href="#u"/>
  <use x="309.421875" y="644" xlink:href="#t"/>
  <use x="326.085938" y="644" xlink:href="#e"/>
  <use x="354.730469" y="644" xlink:href="#s"/>
  <use x="365.148438" y="644" xlink:href="#f"/>
  <use x="385.191406" y="644" xlink:href="#c"/>
  <use x="404.429688" y="644" xlink:href="#a"/>
  <use x="418.234375" y="644" xlink:href="#a"/>
  <use x="432.046875" y="644" xlink:href="#e"/>
  <use x="70" y="672" xlink:href="#r"/>
  <use x="82.183594" y="672" xlink:href="#a"/>
  <use x="95.992188" y="672" xlink:href="#c"/>
  <use x="115.226562" y="672" xlink:href="#q"/>
  <use x="154.152344" y="672" xlink:href="#d"/>
  <use x="167.535156" y="672" xlink:href="#p"/>
  <use x="187.46875" y="672" xlink:href="#b"/>
  <use x="216.207031" y="672" xlink:href="#o"/>
  <use x="239.640625" y="672" xlink:href="#c"/>
  <use x="258.878906" y="672" xlink:href="#g"/>
  <use x="278.8125" y="672" xlink:href="#n"/>
  <use x="308.492188" y="672" xlink:href="#m"/>
  <use x="329.015625" y="672" xlink:href="#a"/>
  <use x="342.820312" y="672" xlink:href="#c"/>
  <use x="362.058594" y="672" xlink:href="#l"/>
  <use x="371.65625" y="672" xlink:href="#b"/>
  <use x="390.648438" y="672" xlink:href="#k"/>
  <use x="407.242188" y="672" xlink:href="#d"/>
 </g>
</svg>
