<?xml version="1.0" encoding="UTF-8"?>
<svg width="700pt" height="700pt" version="1.1" viewBox="0 0 700 700" xmlns="http://www.w3.org/2000/svg" xmlns:xlink="http://www.w3.org/1999/xlink">
 <defs>
  <symbol id="h" overflow="visible">
   <path d="m18.766-1.125c-0.96875 0.5-1.9805 0.875-3.0312 1.125-1.043 0.25781-2.1367 0.39062-3.2812 0.39062-3.3984 0-6.0898-0.94531-8.0781-2.8438-1.9922-1.9062-2.9844-4.4844-2.9844-7.7344 0-3.2578 0.99219-5.8359 2.9844-7.7344 1.9883-1.9062 4.6797-2.8594 8.0781-2.8594 1.1445 0 2.2383 0.13281 3.2812 0.39062 1.0508 0.25 2.0625 0.625 3.0312 1.125v4.2188c-0.98047-0.65625-1.9453-1.1406-2.8906-1.4531-0.94922-0.3125-1.9492-0.46875-3-0.46875-1.875 0-3.3516 0.60547-4.4219 1.8125-1.0742 1.1992-1.6094 2.8555-1.6094 4.9688 0 2.1055 0.53516 3.7617 1.6094 4.9688 1.0703 1.1992 2.5469 1.7969 4.4219 1.7969 1.0508 0 2.0508-0.14844 3-0.45312 0.94531-0.3125 1.9102-0.80078 2.8906-1.4688z"/>
  </symbol>
  <symbol id="d" overflow="visible">
   <path d="m13.734-11.141c-0.4375-0.19531-0.87109-0.34375-1.2969-0.4375-0.41797-0.10156-0.83984-0.15625-1.2656-0.15625-1.2617 0-2.2305 0.40625-2.9062 1.2188-0.67969 0.80469-1.0156 1.9531-1.0156 3.4531v7.0625h-4.8906v-15.312h4.8906v2.5156c0.625-1 1.3438-1.7266 2.1562-2.1875 0.82031-0.46875 1.8008-0.70312 2.9375-0.70312 0.16406 0 0.34375 0.011719 0.53125 0.03125 0.19531 0.011719 0.47656 0.039062 0.84375 0.078125z"/>
  </symbol>
  <symbol id="a" overflow="visible">
   <path d="m17.641-7.7031v1.4062h-11.453c0.125 1.1484 0.53906 2.0078 1.25 2.5781 0.70703 0.57422 1.7031 0.85938 2.9844 0.85938 1.0312 0 2.082-0.14844 3.1562-0.45312 1.082-0.3125 2.1914-0.77344 3.3281-1.3906v3.7656c-1.1562 0.4375-2.3125 0.76562-3.4688 0.98438-1.1562 0.22656-2.3125 0.34375-3.4688 0.34375-2.7734 0-4.9297-0.70312-6.4688-2.1094-1.5312-1.4062-2.2969-3.3789-2.2969-5.9219 0-2.5 0.75391-4.4609 2.2656-5.8906 1.5078-1.4375 3.582-2.1562 6.2188-2.1562 2.4062 0 4.332 0.73047 5.7812 2.1875 1.4453 1.4492 2.1719 3.3828 2.1719 5.7969zm-5.0312-1.625c0-0.92578-0.27344-1.6719-0.8125-2.2344-0.54297-0.57031-1.25-0.85938-2.125-0.85938-0.94922 0-1.7188 0.26562-2.3125 0.79688s-0.96484 1.2969-1.1094 2.2969z"/>
  </symbol>
  <symbol id="f" overflow="visible">
   <path d="m9.2188-6.8906c-1.0234 0-1.793 0.17188-2.3125 0.51562-0.51172 0.34375-0.76562 0.85547-0.76562 1.5312 0 0.625 0.20703 1.1172 0.625 1.4688 0.41406 0.34375 0.98828 0.51562 1.7188 0.51562 0.92578 0 1.7031-0.32812 2.3281-0.98438 0.63281-0.66406 0.95312-1.4922 0.95312-2.4844v-0.5625zm7.4688-1.8438v8.7344h-4.9219v-2.2656c-0.65625 0.92969-1.3984 1.6055-2.2188 2.0312-0.82422 0.41406-1.8242 0.625-3 0.625-1.5859 0-2.8711-0.45703-3.8594-1.375-0.99219-0.92578-1.4844-2.1289-1.4844-3.6094 0-1.7891 0.61328-3.1016 1.8438-3.9375 1.2383-0.84375 3.1797-1.2656 5.8281-1.2656h2.8906v-0.39062c0-0.76953-0.30859-1.332-0.92188-1.6875-0.61719-0.36328-1.5703-0.54688-2.8594-0.54688-1.0547 0-2.0312 0.10547-2.9375 0.3125-0.89844 0.21094-1.7305 0.52344-2.5 0.9375v-3.7344c1.0391-0.25 2.0859-0.44141 3.1406-0.57812 1.0625-0.13281 2.125-0.20312 3.1875-0.20312 2.7578 0 4.75 0.54688 5.9688 1.6406 1.2266 1.0859 1.8438 2.8555 1.8438 5.3125z"/>
  </symbol>
  <symbol id="b" overflow="visible">
   <path d="m7.7031-19.656v4.3438h5.0469v3.5h-5.0469v6.5c0 0.71094 0.14062 1.1875 0.42188 1.4375s0.83594 0.375 1.6719 0.375h2.5156v3.5h-4.1875c-1.9375 0-3.3125-0.39844-4.125-1.2031-0.80469-0.8125-1.2031-2.1797-1.2031-4.1094v-6.5h-2.4219v-3.5h2.4219v-4.3438z"/>
  </symbol>
  <symbol id="k" overflow="visible">
   <path d="m12.766-13.078v-8.2031h4.9219v21.281h-4.9219v-2.2188c-0.66797 0.90625-1.4062 1.5703-2.2188 1.9844s-1.7578 0.625-2.8281 0.625c-1.8867 0-3.4336-0.75-4.6406-2.25-1.2109-1.5-1.8125-3.4258-1.8125-5.7812 0-2.3633 0.60156-4.2969 1.8125-5.7969 1.207-1.5 2.7539-2.25 4.6406-2.25 1.0625 0 2 0.21484 2.8125 0.64062 0.82031 0.42969 1.5664 1.0859 2.2344 1.9688zm-3.2188 9.9219c1.0391 0 1.8359-0.37891 2.3906-1.1406 0.55078-0.76953 0.82812-1.8828 0.82812-3.3438 0-1.457-0.27734-2.5664-0.82812-3.3281-0.55469-0.76953-1.3516-1.1562-2.3906-1.1562-1.043 0-1.8398 0.38672-2.3906 1.1562-0.55469 0.76172-0.82812 1.8711-0.82812 3.3281 0 1.4609 0.27344 2.5742 0.82812 3.3438 0.55078 0.76172 1.3477 1.1406 2.3906 1.1406z"/>
  </symbol>
  <symbol id="j" overflow="visible">
   <path d="m10.5-3.1562c1.0508 0 1.8516-0.37891 2.4062-1.1406 0.55078-0.76953 0.82812-1.8828 0.82812-3.3438 0-1.457-0.27734-2.5664-0.82812-3.3281-0.55469-0.76953-1.3555-1.1562-2.4062-1.1562-1.0547 0-1.8594 0.38672-2.4219 1.1562-0.55469 0.77344-0.82812 1.8828-0.82812 3.3281 0 1.4492 0.27344 2.5586 0.82812 3.3281 0.5625 0.77344 1.3672 1.1562 2.4219 1.1562zm-3.25-9.9219c0.67578-0.88281 1.4219-1.5391 2.2344-1.9688 0.82031-0.42578 1.7656-0.64062 2.8281-0.64062 1.8945 0 3.4453 0.75 4.6562 2.25 1.207 1.5 1.8125 3.4336 1.8125 5.7969 0 2.3555-0.60547 4.2812-1.8125 5.7812-1.2109 1.5-2.7617 2.25-4.6562 2.25-1.0625 0-2.0078-0.21094-2.8281-0.625-0.8125-0.42578-1.5586-1.0859-2.2344-1.9844v2.2188h-4.8906v-21.281h4.8906z"/>
  </symbol>
  <symbol id="i" overflow="visible">
   <path d="m0.34375-15.312h4.8906l4.125 10.391 3.5-10.391h4.8906l-6.4375 16.766c-0.64844 1.6953-1.4023 2.8828-2.2656 3.5625-0.86719 0.6875-2 1.0312-3.4062 1.0312h-2.8438v-3.2188h1.5312c0.83203 0 1.4375-0.13672 1.8125-0.40625 0.38281-0.26172 0.67969-0.73047 0.89062-1.4062l0.14062-0.42188z"/>
  </symbol>
  <symbol id="e" overflow="visible">
   <path d="m17.75-9.3281v9.3281h-4.9219v-7.1094c0-1.3438-0.03125-2.2656-0.09375-2.7656s-0.16797-0.86719-0.3125-1.1094c-0.1875-0.3125-0.44922-0.55469-0.78125-0.73438-0.32422-0.17578-0.69531-0.26562-1.1094-0.26562-1.0234 0-1.8242 0.39844-2.4062 1.1875-0.58594 0.78125-0.875 1.8711-0.875 3.2656v7.5312h-4.8906v-21.281h4.8906v8.2031c0.73828-0.88281 1.5195-1.5391 2.3438-1.9688 0.83203-0.42578 1.75-0.64062 2.75-0.64062 1.7695 0 3.1133 0.54688 4.0312 1.6406 0.91406 1.0859 1.375 2.6562 1.375 4.7188z"/>
  </symbol>
  <symbol id="g" overflow="visible">
   <path d="m2.3594-21.281h4.8906v21.281h-4.8906z"/>
  </symbol>
  <symbol id="c" overflow="visible">
   <path d="m9.6406-12.188c-1.0859 0-1.9141 0.39062-2.4844 1.1719-0.57422 0.78125-0.85938 1.9062-0.85938 3.375s0.28516 2.5938 0.85938 3.375c0.57031 0.77344 1.3984 1.1562 2.4844 1.1562 1.0625 0 1.875-0.38281 2.4375-1.1562 0.57031-0.78125 0.85938-1.9062 0.85938-3.375s-0.28906-2.5938-0.85938-3.375c-0.5625-0.78125-1.375-1.1719-2.4375-1.1719zm0-3.5c2.6328 0 4.6914 0.71484 6.1719 2.1406 1.4766 1.418 2.2188 3.3867 2.2188 5.9062 0 2.5117-0.74219 4.4805-2.2188 5.9062-1.4805 1.418-3.5391 2.125-6.1719 2.125-2.6484 0-4.7148-0.70703-6.2031-2.125-1.4922-1.4258-2.2344-3.3945-2.2344-5.9062 0-2.5195 0.74219-4.4883 2.2344-5.9062 1.4883-1.4258 3.5547-2.1406 6.2031-2.1406z"/>
  </symbol>
  <symbol id="u" overflow="visible">
   <path d="m0.14062-20.406h5.2812l5.4219 15.062 5.4062-15.062h5.2812l-7.5625 20.406h-6.2656z"/>
  </symbol>
  <symbol id="t" overflow="visible">
   <path d="m12.766-2.5938c-0.66797 0.88672-1.4062 1.543-2.2188 1.9688-0.8125 0.41797-1.7578 0.625-2.8281 0.625-1.8672 0-3.4062-0.73438-4.625-2.2031-1.2188-1.4766-1.8281-3.3516-1.8281-5.625 0-2.2891 0.60938-4.1641 1.8281-5.625 1.2188-1.4688 2.7578-2.2031 4.625-2.2031 1.0703 0 2.0156 0.21484 2.8281 0.64062 0.8125 0.41797 1.5508 1.0742 2.2188 1.9688v-2.2656h4.9219v13.766c0 2.457-0.77734 4.3359-2.3281 5.6406-1.5547 1.3008-3.8086 1.9531-6.7656 1.9531-0.94922 0-1.8711-0.074219-2.7656-0.21875-0.89844-0.14844-1.7969-0.37109-2.7031-0.67188v-3.8125c0.86328 0.48828 1.7031 0.85156 2.5156 1.0938 0.82031 0.23828 1.6484 0.35938 2.4844 0.35938 1.6016 0 2.7734-0.35156 3.5156-1.0469 0.75-0.69922 1.125-1.7969 1.125-3.2969zm-3.2188-9.5312c-1.0117 0-1.8047 0.375-2.375 1.125-0.5625 0.74219-0.84375 1.7969-0.84375 3.1719 0 1.3984 0.26953 2.4609 0.8125 3.1875 0.55078 0.71875 1.3516 1.0781 2.4062 1.0781 1.0195 0 1.8125-0.36719 2.375-1.1094 0.5625-0.75 0.84375-1.8008 0.84375-3.1562 0-1.375-0.28125-2.4297-0.84375-3.1719-0.5625-0.75-1.3555-1.125-2.375-1.125z"/>
  </symbol>
  <symbol id="s" overflow="visible">
   <path d="m12.422-21.281v3.2188h-2.7031c-0.6875 0-1.1719 0.125-1.4531 0.375-0.27344 0.25-0.40625 0.6875-0.40625 1.3125v1.0625h4.1875v3.5h-4.1875v11.812h-4.8906v-11.812h-2.4375v-3.5h2.4375v-1.0625c0-1.6641 0.46094-2.8984 1.3906-3.7031 0.92578-0.80078 2.3672-1.2031 4.3281-1.2031z"/>
  </symbol>
  <symbol id="r" overflow="visible">
   <path d="m16.547-12.766c0.61328-0.94531 1.3477-1.6719 2.2031-2.1719 0.85156-0.5 1.7891-0.75 2.8125-0.75 1.7578 0 3.0977 0.54688 4.0156 1.6406 0.92578 1.0859 1.3906 2.6562 1.3906 4.7188v9.3281h-4.9219v-7.9844-0.35938c0.007813-0.13281 0.015625-0.32031 0.015625-0.5625 0-1.082-0.16406-1.8633-0.48438-2.3438-0.3125-0.48828-0.82422-0.73438-1.5312-0.73438-0.92969 0-1.6484 0.38672-2.1562 1.1562-0.51172 0.76172-0.77344 1.8672-0.78125 3.3125v7.5156h-4.9219v-7.9844c0-1.6953-0.14844-2.7852-0.4375-3.2656-0.29297-0.48828-0.8125-0.73438-1.5625-0.73438-0.9375 0-1.6641 0.38672-2.1719 1.1562-0.51172 0.76172-0.76562 1.8594-0.76562 3.2969v7.5312h-4.9219v-15.312h4.9219v2.2344c0.60156-0.86328 1.2891-1.5156 2.0625-1.9531 0.78125-0.4375 1.6406-0.65625 2.5781-0.65625 1.0625 0 2 0.25781 2.8125 0.76562 0.8125 0.51172 1.4258 1.2305 1.8438 2.1562z"/>
  </symbol>
  <symbol id="q" overflow="visible">
   <path d="m2.5781-20.406h5.875l7.4219 14v-14h4.9844v20.406h-5.875l-7.4219-14v14h-4.9844z"/>
  </symbol>
  <symbol id="p" overflow="visible">
   <path d="m2.1875-5.9688v-9.3438h4.9219v1.5312c0 0.83594-0.007813 1.875-0.015625 3.125-0.011719 1.25-0.015625 2.0859-0.015625 2.5 0 1.2422 0.03125 2.1328 0.09375 2.6719 0.070313 0.54297 0.17969 0.93359 0.32812 1.1719 0.20703 0.32422 0.47266 0.57422 0.79688 0.75 0.32031 0.16797 0.69141 0.25 1.1094 0.25 1.0195 0 1.8203-0.39062 2.4062-1.1719 0.58203-0.78125 0.875-1.8672 0.875-3.2656v-7.5625h4.8906v15.312h-4.8906v-2.2188c-0.74219 0.89844-1.5234 1.5586-2.3438 1.9844-0.82422 0.41406-1.7344 0.625-2.7344 0.625-1.7617 0-3.1055-0.53906-4.0312-1.625-0.92969-1.082-1.3906-2.6602-1.3906-4.7344z"/>
  </symbol>
  <symbol id="o" overflow="visible">
   <path d="m17.75-9.3281v9.3281h-4.9219v-7.1406c0-1.3203-0.03125-2.2344-0.09375-2.7344s-0.16797-0.86719-0.3125-1.1094c-0.1875-0.3125-0.44922-0.55469-0.78125-0.73438-0.32422-0.17578-0.69531-0.26562-1.1094-0.26562-1.0234 0-1.8242 0.39844-2.4062 1.1875-0.58594 0.78125-0.875 1.8711-0.875 3.2656v7.5312h-4.8906v-15.312h4.8906v2.2344c0.73828-0.88281 1.5195-1.5391 2.3438-1.9688 0.83203-0.42578 1.75-0.64062 2.75-0.64062 1.7695 0 3.1133 0.54688 4.0312 1.6406 0.91406 1.0859 1.375 2.6562 1.375 4.7188z"/>
  </symbol>
  <symbol id="n" overflow="visible">
   <path d="m2.5781-20.406h8.7344c2.5938 0 4.582 0.57812 5.9688 1.7344 1.3945 1.1484 2.0938 2.7891 2.0938 4.9219 0 2.1367-0.69922 3.7812-2.0938 4.9375-1.3867 1.1562-3.375 1.7344-5.9688 1.7344h-3.4844v7.0781h-5.25zm5.25 3.8125v5.7031h2.9219c1.0195 0 1.8047-0.25 2.3594-0.75 0.5625-0.5 0.84375-1.2031 0.84375-2.1094 0-0.91406-0.28125-1.6172-0.84375-2.1094-0.55469-0.48828-1.3398-0.73438-2.3594-0.73438z"/>
  </symbol>
  <symbol id="m" overflow="visible">
   <path d="m2.3594-15.312h4.8906v15.031c0 2.0508-0.49609 3.6172-1.4844 4.7031-0.98047 1.082-2.4062 1.625-4.2812 1.625h-2.4219v-3.2188h0.85938c0.92578 0 1.5625-0.21094 1.9062-0.625 0.35156-0.41797 0.53125-1.2461 0.53125-2.4844zm0-5.9688h4.8906v4h-4.8906z"/>
  </symbol>
  <symbol id="l" overflow="visible">
   <path d="m14.719-14.828v3.9844c-0.65625-0.45703-1.3242-0.79688-2-1.0156-0.66797-0.21875-1.3594-0.32812-2.0781-0.32812-1.3672 0-2.4336 0.40234-3.2031 1.2031-0.76172 0.79297-1.1406 1.9062-1.1406 3.3438 0 1.4297 0.37891 2.543 1.1406 3.3438 0.76953 0.79297 1.8359 1.1875 3.2031 1.1875 0.75781 0 1.4844-0.10938 2.1719-0.32812 0.6875-0.22656 1.3203-0.56641 1.9062-1.0156v4c-0.76172 0.28125-1.5391 0.48828-2.3281 0.625-0.78125 0.14453-1.5742 0.21875-2.375 0.21875-2.7617 0-4.9219-0.70703-6.4844-2.125-1.5547-1.4141-2.3281-3.3828-2.3281-5.9062 0-2.5312 0.77344-4.5039 2.3281-5.9219 1.5625-1.4141 3.7227-2.125 6.4844-2.125 0.80078 0 1.5938 0.074219 2.375 0.21875 0.78125 0.13672 1.5547 0.35156 2.3281 0.64062z"/>
  </symbol>
 </defs>
 <g>
  <path d="m406.67 401.57s-0.14062 6.3008 0.042969 8.8984c-0.011719-0.050781-0.039063-0.10156-0.042969-0.14453-0.55078-1.8359 0-8.7539 0-8.7539zm-67.359-370.18c0.0625-0.042969 0.17969-0.12891 0.33984-0.23438-0.10938 0.082032-0.23828 0.14844-0.33984 0.23438zm-70.465 458.81c-5.2656 0.54297-8.4609 0.71094-10.125 2.0625 1.8594-0.91797 8.7461-1.9102 11.809-2.2305-0.55078 0.054688-1.1172 0.10547-1.6836 0.16797zm14.191-1.5508 0.27344-0.46484c-0.17188 0.28125-0.27344 0.46484-0.27344 0.46484zm62.434 43.293c-1.3008-0.035157-16.469-0.66016-16.742-0.66797 7.3984 0.40625 13.359 0.59375 16.742 0.66797zm47.668-429.05c-1.9805-1.2656-4.2227-2.1289-5.9375-2.8945zm-105.93 313.23c0.011719 0 0.023437-0.011719 0.035156-0.011719zm6.168-12.371v-0.011718zm152.94 100.45v12.254s-0.75781 1.3828-2.3359 2.1328c-26.82 12.828-92.52 13.41-92.52 13.41h-2.918s-1.0977-0.003906-3.0703-0.050781l-16.754-0.67188c-21.578-1.2031-55.312-4.3672-72.695-12.695-1.5781-0.75-2.3359-2.1328-2.3359-2.1328v-12.254s1.3555-1.7461 3.4961-2.1406c-0.50391-0.8125-0.58203-1.6641-0.46875-2.8438 0.13281-1.0742 0.15234-6.0312 2.0039-6.9492h0.003906c-0.72656 0.59375-1.1641 1.418-1.3438 2.6055-0.28125 1.875-0.56641 3.2422-0.66797 4.3438-0.13281 1.0625 8.8828 3.2305 23.457 5.5664 14.582 2.3281 38.773 2.1914 38.773 2.1914s-9.0391-0.14453-19.395-1.7539c-10.359-1.5898-6.8477-5.0977-9.4688-8.4492-2.6211-3.3555-3.0625-4.5234-3.0625-4.5234s13.125 0.4375 24.93 1.3086c11.805 0.875-6.418-2.4766-16.766-3.207-10.344-0.72266-11.867-2.168-11.871-2.168 0.58203-0.92578 2.0234-2.9219 3.8086-3.2266 0.19531-6.0273 0.38672-54.426 0.38672-54.426s-1.7969-0.53906-3.5508-1.7656c0.11719 0.042969 4.4688 1.5234 10.645 1.668 6.2656 0.14453 12.102 0 12.102 0s0-1.1602-5.3984-1.7461c-5.3945-0.58203 12.246-5.3945 10.5-5.3945s-9.4766-0.875-14.875-1.1641c-5.3945-0.29688-6.8555-1.7539-10.695-2.4766-3.8125-0.72266-0.066406-3.1094-0.003906-3.1484-0.074218 0.039062-5.0391 2.7344-5.5 6.2031 0.28516-2.8633 2.6211-4.957 5.5-6.2031l0.003906-0.003906c0.32031-0.13281 0.63672-0.25391 0.96875-0.37109-0.035156 0.074218-0.875 1.793 0.83594 2.6602 1.7461 0.88672 3.207-0.73828 5.3359-2.3477 1.7734-1.3281 5.8789-0.84375 6.6758-0.73438 0.011719 0 0.023437 0.003906 0.035156 0.011719 0.15625 0.023437 0.125 0.011718-0.035156-0.011719-0.91797-0.14453-1.9727-0.58203-3.125-1.3594-1.1641-0.78516-1.0195 0.78906-1.2031-3.8711-0.17969-4.6484-2.3398-5.6914-2.3516-5.6953 0.023438 2.6758-0.003906 6.125-0.23438 6.7031l0.23438-6.7031c0-0.35156 0-0.70703-0.003906-1.0234 0 0 9.2461 0.58203 6.043 0-3.207-0.58203-0.87891-3.3555-4.6641-3.6406-3.793-0.29297-1.2422-3.7734-1.2383-3.7852 1.4883-0.74609 4.0586-1.4609 8.5664-1.9492 10.879-1.1719 25.078-1.9492 25.078-1.9492s-1.0625 0.82422-4.418 2.4375c-3.3555 1.6016-6.1211 3.2031-3.3555 3.2031s8.3047 1.3047 10.5 0.72656c2.1914-0.58203 1.0195-2.1836 1.1602-3.9297 0.14453-1.7461 0.14453-2.3359 2.4766-5.8359 2.3359-3.5 2.1289-5.5312 3.4727-6.8555 1.3398-1.3086-4.0039 2.6875-5.3984 4.8555 1.3281-2.3516 2.5156-5.4727 2.8047-9.375 0.72656-9.9102-1.1719-22.164-5.3984-33.684-2.8828-13.145-2.918-21.426-2.918-26.383 0-4.957 2.1914-17.641 2.1914-22.305s0.58203-14.438-2.918-24.641c-3.5-10.199-4.2266-26.242-4.3672-32.512-0.14453-6.2656 1.457-28.855 2.4766-33.234 1.0195-4.3789 1.0234-3.3672 1.0234-4.375 0-1.0234-0.58984-8.3047-1.1641-9.1914-0.58203-0.875-2.3359-2.625-4.5234-3.6406-2.1836-1.0234-7.8672-4.5195-8.8984-9.625-1.0195-5.1016-2.3281-13.41-2.7656-16.031-0.42969-2.625-1.7461-14.285-3.0625-19.969-1.3086-5.6914-4.8047-10.203-4.3672-16.621 0.4375-6.418 1.3047-15.598 3.7852-19.395 2.4883-3.793 8.0234-5.2539 10.645-6.7031 1.2031-0.67188 4.0039-2.3789 6.957-4.2617l-0.003906 0.003907c-2.0312 1.3008-0.92578 2.4531 0.82422 2.3633 1.7461-0.10156 11.273 0.86719 14.184 0.58203 2.918-0.30078 7.4883-4.1836 7.4883-4.1836s-4.9609 1.4609-9.5273 0.48828c-4.5625-0.97266-2.6211-6.3828-2.6211-6.3828l-0.003906 0.003906c2.5195-1.8828 5.2344-4.1328 5.1875-9.3516-0.003906-0.27344-0.015625-0.55859-0.035156-0.84375-0.042969-0.76562-0.125-1.5234-0.21875-2.2695 0.003906 0.011718 0.003906 0.027343 0.015625 0.042968 0.066406 0.35156 0.13281 0.66016 0.21094 0.94141-0.15625-0.87891-0.33203-1.832-0.50781-2.8633 0.10547 0.61719 0.20312 1.2422 0.28125 1.875-0.34766-1.8984-1.0586-5.0469-1.7969-8.5664 0.46484 1.7148 0.92969 3.5742 1.3047 5.5273-0.57031-3.1289-1.293-6.8164-2.375-10.93 0.33594 1.8203 0.69922 3.6562 1.0625 5.4023-0.66797-2.4414-1.3086-4.5859-1.625-6.3672-0.28125-1.5508-0.49219-3.9492-0.57812-6.625 0.10156 1.0938 0.25781 2.2852 0.44141 3.5156-0.30859-3.1641-0.42969-7.3906-0.11328-10.254 0.011719-0.10156 0.023438-0.20703 0.035157-0.30859-0.09375 0.72266-0.20313 1.4609-0.34766 2.25 0 0.003907-0.003906 0.003907-0.003906 0.003907 0.11328-2.9453 0.41406-5.8594 0.99609-8.1211 0.054687-0.23047 0.125-0.46875 0.19531-0.71875-0.21484 1.1719-0.35156 2.4219-0.48438 3.7812 0.27344-2.1328 0.68359-4.3281 1.4961-6.3711-0.39062 0.88672-0.73438 1.7656-0.98047 2.6211 0.25391-1.1875 0.63281-2.2773 1.2695-3.3086 0.54297-1.2031 1.2422-2.3398 2.1797-3.3672 0.37109-0.46094 0.77344-0.90234 1.2109-1.3203v0.0625c-0.035157 0.035157-0.089844 0.10547-0.125 0.14453 0.042968-0.035156 0.09375-0.085937 0.12891-0.11719 0-0.003906-0.003906-0.023437-0.003906-0.027344 0.20703-0.23438 0.33594-0.375 0.34766-0.39062 0.21094-0.19531 0.43359-0.38672 0.66406-0.57031 2.8633-0.69922 10.605 0.52734 14.824 1.4844 4.2344 0.95703 8.2656 1.7539 8.5586 2.2344 0.28516 0.48047 2.3281 1.3672 1.7461 4.2773-0.58203 2.9102-0.58203 7.0898 0.29688 10.395 0.86719 3.3047-0.49219 6.2227-1.8477 9.8164-1.3594 3.5938-1.7461 4.7617-1.9414 9.1328-0.19531 4.375-2.625 6.418-2.625 6.418s2.7148 0.77734 3.6914 0c0.96875-0.78516 1.7461-3.8867 2.4297-6.2148 0.68359-2.3398 0.875-6.1328 0.875-7.4883 0-1.3594-0.97266-0.78516-0.875-1.4609 0.10156-0.67578 1.0625-3.793 2.1445-9.3281 0.82812-4.3281-0.90234-11.031-1.6953-13.758-0.53906-0.72656-1.2539-1.6797-1.8125-2.3359-1.0234-1.1914-4.4297-5.957-13.535-5.875-4.5039-0.37891-7.9023 1.2617-9.375 2.1328-0.18359 0.11328-0.33203 0.20703-0.46094 0.29297 0.015625-0.003906 0.027344-0.015625 0.042968-0.027344-0.21875 0.14453-0.375 0.25391-0.37891 0.26172 0 0 3-2.7734 8.457-3.2383 1.6758-0.21875 3.5039-0.24219 5.4727 0.13281 0.011718 0.003906 0.023437 0.003906 0.027344 0.003906-1.0352-0.14453-2.1133-0.22656-3.2734-0.22656-0.14453 0-0.28125 0.011719-0.42578 0.011719 3.3828 0.050781 6.2148 0.80469 8.5469 1.9531-1.3828-0.72656-2.9805-1.3594-4.8594-1.7266 4.6602 0.71094 7.8164 2.9336 9.9336 5.6289 0.023438 0.023437 0.042969 0.042968 0.066407 0.066406 2.6484 3.1641 2.3242 3.9922 2.3242 3.9922 0 0.003907-0.019532-0.019531-0.027344-0.03125 0.44922 1.043 0.80469 2.082 1.0586 3.0742 1.4609 5.6914 1.1719 15.457 0.4375 19.539-0.72656 4.082-3.207 10.203-3.6406 17.199-0.26172 4.1211 1.0977 6.5117 2.8555 8.2695-1.1328 4.8086 10.07 9.5703 14.348 12.285 4.2734 2.7227-4.4688 3.5 1.3555 3.5 5.8359 0 14.531 4.2266 14.531 4.2266 2.4805 3.7969 3.3594 12.977 3.7969 19.395 0.4375 6.418-3.0625 10.93-4.375 16.621-1.3086 5.6914-2.625 17.348-3.0586 19.969-0.41406 2.4922-1.625 10.102-2.6133 15.238-0.003906 0.003906-5.7461 4.6367-8.2812 6.0977-2.5195 1.457-5.8242 2.8242-5.8242 4.375 0 1.5508 0 0.77344 2.5273-0.77734 2.5273-1.5508 4.5234-2.5273 4.5234-2.5273s3.7461-2.5703 3.0586-1.0703c-0.6875 1.4961 3.3281-2.4766 4-6.0938-0.054687 0.26953-0.10547 0.54297-0.15625 0.79688-1.0234 5.1055-6.707 8.6016-8.8945 9.625-2.1914 1.0195-3.9375 2.7656-4.5234 3.6406-0.58203 0.87891-1.1641 8.1641-1.1641 9.1914 0 1.0117 0 0 1.0234 4.375 1.0234 4.375 2.6211 26.965 2.4766 33.234-0.14062 6.2734-0.875 22.309-4.3672 32.512-3.5039 10.203-2.918 19.977-2.918 24.641 0 4.6641 2.1914 17.355 2.1914 22.305 0 4.9492-0.039062 13.238-2.918 26.383-4.2344 11.52-6.125 23.773-5.3984 33.684 0.73438 9.918 7.2422 14.773 7.2422 14.773s14.195 0.77734 25.078 1.9492c10.887 1.1641 10.5 3.6914 10.695 4.6719 0.19141 0.96875-1.9414 2.5195-1.9414 2.5195-4.7227 3.3594-2.582 9.3281-4.9062 12.387-2.3203 3.0625-13.273 4.6719-9.625 4.8164 3.6328 0.14062 8.7461-0.73438 11.512-1.4102 2.7734-0.68359 4.5234-1.5117 4.7656-2.1953 2.1016 0.16797 4.3633 0.76562 6.2812 1.7695-3.2695-1.2539 0.61719 1.0977-1.8594 3.1406-2.4766 2.043-2.918 3.7969-10.062 4.5234-7.1406 0.72656-27.988 4.2266 1.3086 4.2266 0 0 3.207-0.875 5.543-1.457 2.3281-0.58203 8.4297-1.8945 8.8945-3.9375 0.30078-1.3555-0.042968-3.1914-1.2422-4.6602 1.2891 1.2695 2.0898 2.8672 2.0117 4.7539-0.18359 5.0586-6.8047 7-6.8047 7s0.19531 48.402 0.39062 54.426c2.3281 0.39062 4.082 3.6953 4.082 3.6953s6.6133 0.77734 14.191 1.5508c7.5781 0.77344 10.879 0.77734 11.469 4.6641 0.58984 3.8867 1.1641 5.6406 0.19141 7.1914 2.1289 0.39062 3.4883 2.1406 3.4883 2.1406zm-43.684-101.61c1.3047-0.875 3.2031-2.3281 3.2031-2.3281l-6.5625 1.5898-0.4375 0.003906s0.58203 1.1719-0.875 1.4609c-1.4531 0.29297 3.3633 0.14453 4.6719-0.72656zm-20.457-249.35c0.38672 3.4961 1.457 4.2773 3.3945 3.3047 1.9492-0.97266 2.2344-3.6953 2.8242-6.8047 0.58203-3.1133-0.38672-7.582-0.875-10.203 0 0-0.29297-0.97266-1.3594-0.97266-1.0625 0-1.457 1.4609-3.2031 5.2539-1.75 3.7891-1.168 5.9219-0.78125 9.4219zm-33.941-125.11c0.26953-0.015624 0.53125-0.039062 0.8125-0.042968-0.28125 0.011718-0.55469 0.023437-0.8125 0.042968zm-6.5898 15.188c-0.38672-2.8164-0.58203-1.4609-2.3867-6.8984-0.44922-1.3398-0.71094-2.2773-0.85547-2.9531-1.7734 1.3281-4.1211 5.3203-4.8164 9.3125-0.69531 4.0039-0.91797 11.664 0 16.688 0.92578 5.0195 2.0273 10.465 2.582 12.762 0.42188 1.7578 0.875 4.1055 0.90625 5.3867 1.1992 1.875 3.0703-1.0859 3.7031-2.5156 0.77734-1.7461-0.58203-5.7344-3.0117-10.207-2.4297-4.4688-1.9492-14.285-0.875-17.59 1.0625-3.3047 5.1445-1.1719 4.7539-3.9844zm13.703 89.25c1.7461 0.99609 2.918 2.8945 4.4727 6.3945 1.5586 3.4883 6.6094 2.3242 6.3711 1.5508-0.23438-0.78516 2.7617-7.7773 2.957-8.7461 0.19141-0.97266-4.2773 0.97266-2.957-2.1406 1.3281-3.1133-0.92969-5.8281-0.92969-5.8281h-3.3047c-1.5508 1.7461-0.77734 2.1406 0.29297 6.9961 1.0781 4.8516-8.6445 0.76953-6.9023 1.7734zm-0.97656 126.27c0.87891-13.121 4.5312-18.66 6.125-8.4492 1.6016 10.199 3.793-3.9414 4.6719-17.062 0.20703-8.1406-0.58203-10.645-2.1953-10.496-1.6016 0.14062-3.9375 2.1914-3.9375 2.1914s-6.2617 11.613-6.2617 26.219c0 14.605 0.14062 19.41 2.4766 24.367 2.3359 4.9531-1.7461-3.6562-0.87891-16.77zm-0.37891-68.18c0 3.1133-1.7539 4.4688-1.7539 14.969 0 10.496 0.97266-1.9414 2.1406-5.8281 1.1719-3.8867 3.8906-0.77734 4.6406 6.2148 0.75 6.9961 3.7188 7.1953 3.7188 7.1953s-0.38672-5.8359 0.58203-10.5c0.96875-4.6641-0.19531-4.2773-3.3047-12.828-3.1133-8.5508-5.6445-6.2148-5.6445-6.2148-0.76563 1.543-0.37891 3.8789-0.37891 6.9922zm-2.7227 22.551v1.3555s0.26953 16.09 0.96875 24.297c0.70703 8.2109-0.18359-7.582 3.7031-13.215 3.8789-5.6328-1.7539 0.38672-1.3672-7.9727-0.8125-5.5977-3.3203-6.8125-3.3047-4.4648zm0.63281-164.06s1.457-0.54297 4.082-0.375c2.625 0.16406 2.3359 0.125 1.8945 1.4375-0.42969 1.3086-2.4766 1.1641-0.58203 1.3281 1.8984 0.16797 5.1055-1.0352 5.1055-2.3906s-6.418-3.1641-6.418-3.1641c-0.87891 1.1641-4.082 3.1641-4.082 3.1641zm-10.938 80.68c-0.875 1.1797 1.1719 1.7344 3.793 1.8828 2.625 0.14453 3.9375-0.29297 5.2539-1.8945 1.3086-1.6055-2.3281-0.72656-4.082-0.72656-1.7539 0-1.8984-1.1758-1.8984-1.1758-0.003906 0-2.1914 0.73438-3.0664 1.9141zm4.8125 7.9961c0-1.8945-1.4609-2.7656-3.3555-1.7461 0 0-2.625 4.5195-1.7539 7.293 0.87891 2.7656 0.4375 4.8047 1.7539 5.2461 1.3047 0.44141 2.918 1.0234 3.3555-0.86719 0.43359-1.9062 0-8.0273 0-9.9258zm-20.559-34.254c0.72266 1.6406 5.6211 1.3594 7.7656 10.5 2.1523 9.1328 1.7578 16.711 7.0117 8.5469 5.2461-8.1641 1.7461-18.078 0-19.047-1.7578-0.97656-16.137-3.1211-14.777 0zm-15.312 10.641c1.1719-0.14062 4.5234-1.8945 4.375-3.0625-0.14062-1.1641-3.2031-2.1914-4.375-1.6016-1.5625 0.78125-1.1641 4.8125 0 4.6641zm2.0977 13.852c1.7031 5.0977 5.0508 12.047 4.8594 15.16-0.19531 3.1133 4.0391-0.19531 9.4023-5.2539 5.3711-5.0508-0.46094-3.5-4.3438-7.7734-3.8945-4.2695-11.965-8.2734-9.918-2.1328zm18.023 17.059c0.58203-4.082 1.3164-4.9609 4.082-7.582 2.7734-2.6211 1.8945-2.9102-1.8945-0.72656 0 0-5.6914 5.1016-9.3359 10.203-3.6406 5.1016-7.582 12.246-9.3281 11.52-1.7461-0.72656-4.8906 17.793 7.543 1.8945 12.434-15.891 8.3516-11.227 8.9336-15.309zm-3.7617 31.926c3.3828 3.1133 13.73 3.3047 13.73 3.3047s-4.6641-1.9414-7.1914-2.5273c-2.5312-0.58203 6.9961-0.97266 1.7656-1.5508-5.2305-0.58203-10.711-5.4414-10.711-5.4414-0.38672 3.1055-0.97656 3.1055 2.4062 6.2148zm14.891 187.19c0.19531-6.7969-4.0469-18.465-4.1562-28.766-0.11719-10.305-0.50781-4.082 1.2422-7 1.7539-2.9102 4.082-6.6094 1.9492-11.855-2.1406-5.2461-2.1016-5.0508-3.1875-4.4727-1.0859 0.58203-1.668 2.7227-1.668 2.7227-1.9492 4.6641-3.3086 10.879-1.9492 18.664 1.3594 7.7734 4.6641 17.875 5.2461 23.516 0.58984 5.6406 0.58984 12.246 0 18.465-0.58594 6.2227 2.332-4.4688 2.5234-11.273zm1.707-93.598c0-4.8047-8.6016-0.4375-10.5-12.969s-2.7656-25.66-0.14062-28.867c3.9297-2.1914 5.9688-5.3945-2.1953-13.551h-0.58203c-2.3359 1.0195-4.082 8.3047-3.0625 14.863 1.0234 6.5625 1.8984 26.395 4.082 34.699 2.1953 8.3086 3.9414 11.535 5.1055 16.039 1.1641 4.5234 2.7656 8.7461 3.0586 4.8047 0.29297-3.9375 4.2344-10.203 4.2344-15.02zm3.0586 114.4s1.0625 12.441 0.67578 12.633 0.77734 0.77734 1.0703-2.4375c0.29688-3.2031-1.7461-10.195-1.7461-10.195zm12.246-212.37c2.0391-1.3047 4.8047-1.6055 3.3555-2.918-1.4609-1.3086-0.73438-2.918-2.0391-4.6641-1.3086-1.7461-6.125-4.375-8.0234-4.375-1.8945 0-4.9375 1.8086-5.4805 3.793v0.58203c-1.2227 3.0586-1.7031 4.082 0 4.3672 1.7031 0.29688 4.3164-0.72656 5.9297 0 1.6016 0.73828 3.793 0.73828 2.3281 2.0391-1.457 1.3086-4.5195 1.6055-6.7031 2.0508-2.1914 0.42969-5.4648 2.1836-2.6602 2.0312 2.8047-0.14844 11.25-1.5938 13.293-2.9062zm-1.4609 211.78c-1.3594-1.2656-0.67578-0.19531-2.3359 0-1.6523 0.19141-2.8164 3.0117-3.2031 1.1641-0.37891-1.8438-0.77734 0.39062-0.77734 4.1055 0 3.7188 1.9492-1.0938 2.2344-2.2578 0.28516-1.1641 1.8438-2.2344 2.8242-1.8477 0.97266 0.39844 1.2578-1.1641 1.2578-1.1641zm2.4805-28.379c3.9375-13.266 3.3555-23.465 1.4609-28.426-1.8945-4.957-5.1016-10.496-6.2734-6.1211 0 0-1.3086 16.613-1.8945 24.781-0.57812 8.1641-2.4766 31.344-2.4766 31.344s1.8984-12.828 3.0586-12.977c1.1719-0.14062 1.8984 7.875 2.4805 10.355 0.58203 2.4766 2.7734 6.418 2.7734 4.082-0.003906-2.3359-3.0586-9.7734 0.87109-23.039zm11.664 38.344c-3.2031-2.7656-5.5391-4.5195-7-7.7227-1.457-3.2031-2.918-5.1016-3.6406-3.0625 0 0-0.14453 5.3945 1.3086 7.7266 1.457 2.3281 2.0391 4.082 4.957 4.2266 2.9219 0.14062 7.5781 1.5977 4.375-1.168zm-90.113 29.551c0.25391 2.1328 1.6562 3.6719 3.125 4.7266-0.42578-0.3125-2.7617-2.1523-3.125-4.7266zm3.207 4.7891h0.011719c-0.035156-0.023437-0.066406-0.042969-0.10156-0.066406 0.039063 0.035156 0.089844 0.066406 0.089844 0.066406zm7.6445-13.594c-1.4336 0.11719-2.9297 0.4375-4.3516 0.93359zm101.55-312.27 3.3672 3.1523c-0.84766-1.293-2.0508-2.3047-3.3672-3.1523zm-112.44 320.62v0.015625c0.003906 0.10547 0.015625 0.20312 0.023437 0.29688-0.011718-0.097656-0.015625-0.20312-0.023437-0.3125zm12.445-12.035c-0.37891 0.97266-1.3594 1.7539-1.5508 3.6914zm0.36719-15.164c-2.0938 1.0547-2.0039 2.1562-2.1211 2.7266 0.23438-1.0117 2.1172-2.7148 2.1211-2.7266zm45.797-364.92c-0.023438 0.011719-0.039063 0.027344-0.054688 0.039063h-0.007812s0.03125-0.011719 0.0625-0.039063zm-7.8711 56.574c-0.12891 0.085938-8.3086 5.8125-10.344 7.1172 3.4961-2.2188 7.207-4.6797 8.793-5.9453 0.48047-0.38672 1.0117-0.77734 1.5508-1.1719zm6.7969-55.641c0.11328-0.11719 0.23047-0.22266 0.34766-0.33203l0.003907-0.003906c0-0.003907-0.35156-0.30859-0.35156 0.33594zm-5.8516 16.828c-0.21094 1.1719-0.19141 2.8398-0.015624 4.7891-0.035157-1.5391-0.035157-3.1719 0.015624-4.7891zm-0.78516 337.88c-1.3984 2.1602-4.4414 5.3984-4.4414 5.3984s2.3906-1.7852 4.4414-5.3984zm76.383 26.473c0.19531 0.45312 0.35938 0.99609 0.42969 1.668 0.10547-0.28906-0.11328-0.90625-0.42969-1.668zm-1.1289-2.0234c0.24219 0.60547 0.69922 1.125 1.0625 1.8945-0.39062-0.89453-0.90625-1.9609-1.2031-2.9062 0.039062 0.5 0.085937 0.86328 0.14062 1.0117zm10.434 7.2969c-0.61719-0.75781-1.4727-1.4102-2.5859-1.832 0.97266 0.50781 1.8516 1.1172 2.5859 1.832zm-146.73 71.25c6.8359-0.71094 12.48-1.3789 12.48-1.3789 0 0.003906-9.4062 1.0547-12.48 1.3789zm0 0c-0.011719 0.003906-0.015626 0.003906-0.023438 0.003906h0.003906c0.007813 0.003906 0.011719 0.003906 0.019532-0.003906zm20.836-90.977c-0.24219 1.0039 1.9492 2.5195 1.9492 2.5195s-2.1406-1.5508-1.9492-2.5195zm1.9805 4.6914c-0.011719-1.2695-0.035156-2.1719-0.035156-2.1719zm-12.645 18.961m0 0.007813m105.14-323.36c0.38672 0.21875 0.83984 0.42969 1.3398 0.64844zm-15.742-10.203c2.918 2.3281 13.121 8.7461 15.746 10.203 0 0-15.746-10.203-19.594-13.312 1.2266 1.2344 2.6445 2.1484 3.8477 3.1094z"/>
  <use x="70" y="644" xlink:href="#h"/>
  <use x="90.550781" y="644" xlink:href="#d"/>
  <use x="104.359375" y="644" xlink:href="#a"/>
  <use x="123.347656" y="644" xlink:href="#f"/>
  <use x="142.242188" y="644" xlink:href="#b"/>
  <use x="155.628906" y="644" xlink:href="#a"/>
  <use x="174.617188" y="644" xlink:href="#k"/>
  <use x="204.410156" y="644" xlink:href="#j"/>
  <use x="224.453125" y="644" xlink:href="#i"/>
  <use x="252.453125" y="644" xlink:href="#h"/>
  <use x="273" y="644" xlink:href="#e"/>
  <use x="292.933594" y="644" xlink:href="#f"/>
  <use x="311.828125" y="644" xlink:href="#d"/>
  <use x="325.636719" y="644" xlink:href="#g"/>
  <use x="335.234375" y="644" xlink:href="#c"/>
  <use x="354.46875" y="644" xlink:href="#b"/>
  <use x="367.855469" y="644" xlink:href="#b"/>
  <use x="381.242188" y="644" xlink:href="#a"/>
  <use x="409.976562" y="644" xlink:href="#u"/>
  <use x="431.648438" y="644" xlink:href="#c"/>
  <use x="450.882812" y="644" xlink:href="#t"/>
  <use x="470.929687" y="644" xlink:href="#a"/>
  <use x="489.917969" y="644" xlink:href="#g"/>
  <use x="70" y="672" xlink:href="#s"/>
  <use x="82.183594" y="672" xlink:href="#d"/>
  <use x="95.992188" y="672" xlink:href="#c"/>
  <use x="115.226562" y="672" xlink:href="#r"/>
  <use x="154.152344" y="672" xlink:href="#b"/>
  <use x="167.535156" y="672" xlink:href="#e"/>
  <use x="187.46875" y="672" xlink:href="#a"/>
  <use x="216.207031" y="672" xlink:href="#q"/>
  <use x="239.640625" y="672" xlink:href="#c"/>
  <use x="258.878906" y="672" xlink:href="#p"/>
  <use x="278.8125" y="672" xlink:href="#o"/>
  <use x="308.492188" y="672" xlink:href="#n"/>
  <use x="329.015625" y="672" xlink:href="#d"/>
  <use x="342.820312" y="672" xlink:href="#c"/>
  <use x="362.058594" y="672" xlink:href="#m"/>
  <use x="371.65625" y="672" xlink:href="#a"/>
  <use x="390.648438" y="672" xlink:href="#l"/>
  <use x="407.242188" y="672" xlink:href="#b"/>
 </g>
</svg>
