<?xml version="1.0" encoding="UTF-8"?>
<svg width="700pt" height="700pt" version="1.1" viewBox="0 0 700 700" xmlns="http://www.w3.org/2000/svg">
 <path d="m552.54 125.71c-9.625-0.6875-17.492 18.516-18.133 20.113l-35.469 7.9297c-0.074219 0.003907-0.14844 0.011719-0.22266 0.019532l-104.66 20.113-52.199-5.9922c-0.24219-0.023438-0.48438-0.011719-0.72266 0.03125l-9.3984 1.4492c0.082031-3.1836-0.76172-6.6055-2.2305-9.9297-1.707-3.8672-4.2461-7.5312-7.5586-10.016-8.4336-6.3242-18.996-7.4297-30.508-5.0977-0.15625-0.52344-0.28516-1.1055-0.45703-1.5859-2.2852-6.2578-8.2656-13.93-16.09-11.863l-24.594 4.2656c-2.2305-2.1055-5.0859-3.7266-8.3867-3.9805-2.2461-0.17188-3.7734 0.92188-4.7891 1.5664-1.0117 0.64062-1.5703 0.85156-1.5742 0.85156-0.99609-0.035156-2.4297-0.9375-4.3008-2.332-1.8711-1.3945-4.2422-3.3281-7.5977-3.1406-3.375 0.19141-5.5625 2.3711-7.2773 3.9805-1.7188 1.6133-3.0625 2.707-4.0664 2.8516-1.1172 0.16406-2.7812-0.49609-4.9492-1.5625-2.1641-1.0664-4.9102-2.5547-8.2461-1.8945-3.1484 0.625-4.7695 2.9688-6.0742 4.543-1.3086 1.5742-2.125 2.3047-2.6523 2.3438 0.042969-0.003906-0.60937-0.29297-1.8086-1.418-0.59766-0.55859-1.2734-1.2109-2.2148-1.8086-0.9375-0.59375-2.2617-1.1445-3.7461-1-1.668 0.16406-3 1.0273-3.9336 1.9258-0.9375 0.89844-1.6211 1.8633-2.2148 2.6914-0.59375 0.83203-1.1133 1.543-1.5234 1.9375s-0.54688 0.46484-0.69141 0.48047c-0.039062 0.003906-0.12891 0.003906-0.51953-0.24609-0.39453-0.24609-0.98047-0.74609-1.6484-1.3633s-1.4023-1.3359-2.4141-1.9688-2.4141-1.1875-3.9805-1.0117c-1.6875 0.19141-3.0859 1.082-4.0547 2.0117s-1.6367 1.9336-2.2578 2.8203c-1.2422 1.7734-2.1797 2.7148-2.6602 2.8125-0.70312 0.13672-2.0781-0.51953-4.0977-1.8086-2.0195-1.293-4.7734-3.2539-8.25-2.2891-1.6758 0.46484-2.9023 1.5938-3.7031 2.6914-0.80078 1.0977-1.2969 2.2344-1.7656 3.2148-0.46875 0.97656-0.88281 1.8047-1.2461 2.2969-0.36328 0.49219-0.54297 0.58984-0.72266 0.63672-0.035157 0.007813-0.097657 0.023437-0.5625-0.20312-0.46875-0.22656-1.1719-0.70703-1.9688-1.2891-0.79688-0.58203-1.6953-1.2422-2.8633-1.7656-1.168-0.52344-2.8203-0.86328-4.418-0.32031-1.4609 0.49609-2.5078 1.5938-3.1406 2.6172-0.62891 1.0273-0.95312 2.0078-1.2461 2.8945-0.58594 1.7773-1.1719 2.9219-1.4141 3.0977-0.35547 0.25391-1.5742 0.39453-3.457 0.40625s-4.6641-0.023437-6.7148 2.2031c-1.9062 2.0703-1.5078 4.5781-1.3633 6.1172 0.14453 1.5391-0.007812 2.2656 0 2.2578-0.0625 0.085938-1.4258 0.59375-3.543 0.95703-1.0586 0.18359-2.2227 0.38281-3.457 0.96875-1.2344 0.58594-2.625 1.8906-3.0117 3.6172-0.39453 1.7539 0.51953 3.5039 1.4062 4.4258s1.8203 1.5 2.6172 2.0117c0.65234 0.41797 1.0391 0.73438 1.3633 1-0.58984 0.30859-1.707 0.65234-2.9375 1.0117-1.2305 0.35937-2.5586 0.72266-3.8945 1.5234-1.3359 0.79688-2.8359 2.6758-2.6602 4.7461 0.18359 2.1602 1.9492 3.9023 3.5 4.5547 1.5547 0.65234 3.0664 0.81641 4.5 1 1.4336 0.18359 2.7969 0.33984 3.6602 0.60547s0.99219 0.45703 1.043 0.5625c-0.050782-0.10938 0.054687-0.085937-0.19141 0.51953-0.24609 0.60938-0.79688 1.5391-1.4141 2.5312-0.61719 0.99219-1.3125 2.0508-1.7227 3.457-0.41016 1.4102-0.1875 3.6719 1.2461 4.9922 0.72656 0.66797 1.7812 1.1289 2.7344 1.2031 0.94922 0.082031 1.7383-0.16016 2.4141-0.4375 1.3477-0.55859 2.3359-1.3438 3.2539-2.043 0.83594-0.63672 1.5664-1.125 2.0859-1.4141 0.023437 0.34766 0.046874 0.64844 0.042968 1.2148-0.007812 0.84375-0.03125 1.8164 0.20312 2.9688 0.23047 1.1523 0.91406 2.6836 2.375 3.5 1.5938 0.89453 3.4688 0.81641 4.832 0.40625 1.3633-0.41406 2.4688-1.0703 3.457-1.6484 0.99219-0.58203 1.8789-1.0742 2.5312-1.332 0.65625-0.25781 0.92969-0.25 1.0859-0.20312-0.28906-0.085938 0.125 0.21875 0.76562 1.4883 0.32031 0.63281 0.67969 1.4141 1.3203 2.2148 0.64062 0.79688 1.7109 1.6875 3.0977 1.9375 2.0742 0.375 4.0547-0.20703 5.5977-1.0547s2.7734-1.9375 3.9375-2.9688c2.3281-2.0625 4.2695-3.6133 5.6719-3.7031 0.29688-0.019531 1.1523 0.32812 2.4883 1.1719 1.3359 0.84375 3.1953 2.2188 5.832 1.9258 3.2969-0.36719 5.2148-2.6992 6.7266-4.2656 1.5078-1.5703 2.5352-2.3438 3.2148-2.375-0.13281 0.003907 0.625 0.35938 1.8516 1.5312 0.61328 0.58594 1.293 1.2617 2.2891 1.8516s2.5156 1.043 4.0234 0.67969c1.6172-0.39062 2.7461-1.6055 3.3398-2.6484 0.59766-1.043 0.85938-2.0195 1.1289-2.8633 0.23828-0.75 0.46875-1.3008 0.63672-1.6484 0.21875 0.16016 0.46875 0.33984 0.85156 0.69141 1.0273 0.94922 2.4922 2.7891 5.3008 2.7344 3.3945-0.066407 5.6602-2.2148 7.4062-3.7891s3.0938-2.625 4.0664-2.7344c0.23438-0.027344 1.1602 0.32031 2.5742 1.1289s3.5117 2.0977 6.1953 1.4062c3.0078-0.77734 4.1406-3.2969 5.0234-4.8633 0.44141-0.78516 0.83594-1.4219 1.1289-1.7656 0.29297-0.34766 0.34766-0.35156 0.40625-0.36328 0.003907 0 0.082031-0.035157 0.51953 0.20312 0.44141 0.23438 1.0977 0.72266 1.8516 1.3203s1.6055 1.2969 2.7344 1.8516c1.1289 0.55469 2.7109 0.91016 4.3008 0.40625 1.4805-0.46875 2.5781-1.5469 3.2148-2.5742 0.63672-1.0312 0.96484-2.0469 1.2539-2.9375 0.58203-1.7773 1.1523-2.8633 1.3633-3.0117 1.8398-1.2812 4.4258-1.6211 7.6406-1.7773 3.2148-0.15625 6.9492-0.11719 10.535-1.7656 2.8242-1.3008 6.543-3.0156 8.4062-6.832 0.097656-0.20312 0.15625-0.41406 0.24609-0.61719l2.707-0.52734 12.812 13.887c0 10.02-0.17578 20.609 6.3945 28.637 5.75 7.0195 13.488 8.9258 24.051 10.695l61.656 10.332-0.51953 8.7461c-5.7578 0.6875-13.176 1.7227-18.898 5.8516-1.3945 1.0039-3.1016 2.1328-4.5547 3.8633-1.25 1.4883-2.1797 3.5312-2.4258 5.9375l-30.352 7.3008 0.21094 0.89453c-4.875-1.4453-9.5664-2.7734-13.523-3.7109-18.164-4.3086-54.379-8.4102-54.379-8.4102-0.22656-0.027344-0.45312-0.027344-0.67969 0l-38.246 4.7891c-0.65625-0.003906-1.2891 0.23047-1.7891 0.66016-0.011719 0.011719-0.019531 0.019532-0.03125 0.03125-0.074219 0.0625-0.14453 0.13281-0.21094 0.19922l-0.042969 0.042969c-0.023437 0.023437-0.042969 0.046875-0.0625 0.074218l-9.2031 11.176c-0.42188 0.49609-0.65234 1.125-0.64844 1.7773l0.48828 98.734c0 0.5 0.13672 0.98828 0.39453 1.4141l12.676 20.434c0.34375 0.55078 0.87109 0.96484 1.4883 1.1602l118.24 36.523c0.67188 0.19531 1.3906 0.12891 2.0117-0.19141l33.906-12.641c0.37891-0.14844 0.72266-0.38281 1-0.67969l8.9727-9.6523c0.40234-0.42969 0.65625-0.97656 0.72266-1.5625 0 0 1.6797-17.199 2.6289-32.914l27.945 7.9297c3.918 1.2188 12.07 3.7266 19.219 3.5859 6.0938-0.11719 12.574-2.0859 16.73-3.5l-0.03125 0.042969 103.97-34.062c0.09375-0.039062 0.1875-0.082031 0.27734-0.12891 5.3203-2.3945 8.8828-5.8906 11.227-10.289 3.5312-6.625 3.3789-13.836 3.4492-20.773l4.7891-3.6484c0.67969-0.52734 1.0703-1.3438 1.0547-2.2031l-1.0117-66.043c-0.019531-1.3516-1.0312-2.4844-2.3711-2.6602l-3.1719-0.4375c-0.31641-1.5469-0.94141-5.2344-3.5859-10.301-1.5742-3.0195-3.668-6.0586-6.6289-8.2461-2.5312-1.8711-5.7969-2.9492-9.4297-2.7266l-4.6602-13.906 19.102-2.6836c5.5039 5.9375 12.367 7.1172 19.348 7.2773 5.2383 0.12109 10.641-2.5977 14.453-6.1953 3.1719-2.9844 3.0586-8.3438 5.8516-11.691 3.6758-4.4023 11.676-4.9688 13.762-10.312 2.9648-7.6055-1.0859-16.656-4.4805-24.082-4.5859-10.012-11.762-19.273-20.637-25.793-7.3984-5.4375-15.082-9.2383-25.668-9.9922zm-328.61 7.832c0.9375-0.054687 2.2422 0.69531 4.0664 2.0547 1.8242 1.3594 4.0977 3.3047 7.3945 3.4141 2.2227 0.074219 3.6836-1.0234 4.6719-1.6484 0.98828-0.62891 1.4297-0.76563 1.4062-0.76563 2.0586 0.16016 4.6289 1.7344 6.1953 3.6602 3.2695 4.0234 4.2383 10.23 5.2266 16.41 0.91406 5.7188 2.1211 11.367 0.24609 15.207-0.77734 1.5938-3.1914 3.082-5.832 4.3008-2.1602 0.99609-5.1406 1.125-8.4922 1.2891-3.3516 0.16406-7.1836 0.40234-10.535 2.7344-2.4258 1.6875-2.8438 4.1719-3.375 5.7891-0.26563 0.80859-0.53125 1.4648-0.72266 1.7773-0.19141 0.3125-0.19531 0.21875-0.24609 0.23438 0.011718-0.003906 0.097656 0.066406-0.27734-0.11719-0.375-0.18359-1-0.62109-1.7344-1.2031-0.73438-0.58203-1.5664-1.3125-2.6484-1.8945-1.0859-0.58203-2.5664-1.0586-4.1836-0.72266-1.5312 0.31641-2.6875 1.2617-3.457 2.1719-0.77344 0.91016-1.2852 1.8242-1.7344 2.6172-0.89453 1.5898-1.5156 2.2539-1.6484 2.2891-0.14844 0.039063-0.79297-0.12109-2.1289-0.88281-1.3438-0.76953-3.2109-2.1133-5.8789-1.8164-3.3164 0.37109-5.418 2.5742-7.1211 4.1094-1.6992 1.5312-2.8984 2.3867-3.8203 2.4062 0.23828-0.007813-0.41797-0.29688-1.5312-1.3203-0.55469-0.51172-1.1953-1.125-2.1289-1.6523-0.92969-0.52344-2.3359-0.91016-3.7461-0.5625-1.6133 0.39844-2.7383 1.6055-3.3281 2.6484-0.59375 1.0469-0.90234 2.0547-1.1719 2.8945-0.25 0.78516-0.46875 1.3633-0.64062 1.6953-0.26172-0.17969-0.64844-0.50391-1.168-1-1.1562-1.1094-2.8125-3.1875-5.832-3.0664-3.3555 0.13672-5.3789 2.4648-6.918 4.0664-1.5391 1.5977-2.6992 2.5352-3.4141 2.6172-0.26562 0.027344-1.0312-0.25781-2.3438-1.0859-1.3086-0.82812-3.0859-2.1797-5.7031-2.0117-4.0781 0.26562-6.7461 3.0977-8.9727 5.0664-1.1094 0.98438-2.0977 1.7969-2.9336 2.2539-0.76953 0.42188-1.2852 0.46484-1.8516 0.39453-0.14453-0.19531-0.39453-0.58984-0.67969-1.1602-0.61328-1.2148-1.4141-3.4648-4.0664-4.2656-1.7148-0.51953-3.375-0.14062-4.6602 0.36328-1.2891 0.50391-2.3516 1.1797-3.3008 1.7344-0.94922 0.55469-1.7578 0.96484-2.2578 1.1172-0.25 0.074219-0.21094 0.039062-0.27734 0.042969-0.046875-0.33594-0.09375-0.90234-0.085938-1.6797 0.007813-0.85156 0.042969-1.8203-0.20312-2.9805-0.24219-1.1641-1-2.7383-2.4883-3.5039-1.7773-0.91797-3.7383-0.47266-5.0195 0.16016-1.2539 0.61328-2.2188 1.4219-3.0977 2.0938 0.57813-0.92187 1.25-1.9883 1.7656-3.2539 0.53516-1.3164 0.91406-3.1523 0.074218-4.918-0.93359-1.9609-2.7891-2.9219-4.3828-3.4141-1.5977-0.49609-3.1602-0.66406-4.5469-0.84375-1.1172-0.14062-1.8789-0.31641-2.4883-0.48828 0.51562-0.21094 1.0078-0.43359 1.8516-0.67969 1.207-0.35156 2.5742-0.6875 3.9375-1.4062 1.3633-0.71484 2.9648-2.1445 3.2578-4.2227 0.25-1.7852-0.71094-3.3789-1.6094-4.2695-0.89453-0.89062-1.8203-1.418-2.6055-1.9258-0.46484-0.29688-0.66797-0.49609-0.96875-0.72266 0.39062-0.11719 0.73828-0.20703 1.4023-0.32031 1.9414-0.33203 4.9766-0.35156 7.0039-3.0977 1.6367-2.2148 1.1797-4.5547 1.043-6.0312-0.13672-1.4766 0.003906-1.9453-0.042969-1.8945 0.21484-0.23047 0.97656-0.42578 2.7344-0.4375 1.7578-0.011719 4.2344 0.24609 6.5977-1.4492 2.3789-1.707 2.8516-4.1875 3.3828-5.8008 0.26563-0.80859 0.52344-1.4453 0.72266-1.7656 0.19922-0.32422 0.21094-0.29688 0.27734-0.32031 0.019532-0.007813-0.015624-0.070313 0.40625 0.11719 0.41797 0.1875 1.1016 0.67578 1.8828 1.2461 0.78516 0.57031 1.6836 1.2305 2.8203 1.7773 1.1367 0.54688 2.6797 0.97266 4.3008 0.55469 1.6875-0.4375 2.9375-1.5547 3.7461-2.6484 0.80859-1.0938 1.2969-2.2305 1.7656-3.2148s0.91797-1.8359 1.2891-2.3398c0.36719-0.50781 0.53906-0.58594 0.72266-0.63672 0.65234-0.17969 1.8789 0.33984 3.8633 1.6055 1.9844 1.2695 4.6289 3.2656 8.1289 2.5742 3.2969-0.64844 4.8086-3.293 6.0234-5.0234 0.60547-0.86719 1.1406-1.5938 1.5742-2.0117 0.43359-0.41797 0.66016-0.50781 0.88281-0.53125 0.039063-0.003906 0.089844-0.039063 0.48047 0.20312 0.38672 0.24219 0.95312 0.75781 1.6172 1.3711 0.66406 0.61328 1.4375 1.332 2.4492 1.9688 1.0078 0.63672 2.3711 1.1719 3.9375 1.0117 1.668-0.17188 3.0156-1.0352 3.9492-1.9375 0.93359-0.89844 1.6211-1.8633 2.2148-2.6914 0.59375-0.83203 1.1133-1.5469 1.5234-1.9375 0.40625-0.39062 0.55078-0.42188 0.69141-0.4375-0.027344 0.003906-0.042969-0.042969 0.27734 0.16016 0.32031 0.20312 0.85156 0.64453 1.4492 1.2031 1.1875 1.1133 2.957 3.082 5.918 2.8633 3.2617-0.24219 5.0664-2.6367 6.418-4.2656 1.3555-1.6328 2.3945-2.5781 2.9805-2.6953 1.0742-0.21094 2.6094 0.35547 4.7461 1.4062 2.1367 1.0508 4.8281 2.582 8.1641 2.0977 3.2891-0.48047 5.3281-2.6953 7.0039-4.2656 1.6719-1.5703 2.8633-2.4805 3.8203-2.5312zm78.844 15.047c6.0664 0.125 11.363 1.7656 15.918 5.1836 2.2461 1.6836 4.4258 4.7031 5.832 7.8867 1.4023 3.1758 1.9805 6.5508 1.7227 8.5547l-21.992 3.3828-13.25-9.8867c1.9219-3.7969 2.2422-9.1445 1.5859-14.066 3.6016-0.73047 7.0117-1.1172 10.184-1.0547zm-111.76 0.58594c-0.69922-0.027344-1.4102-0.007813-2.1172 0.054687-2.8359 0.25-5.9609 1.3281-7.5547 4.2656-1.6328 3.0078-0.82812 6.3047 0.51953 8.9609 1.3516 2.6562 3.2734 4.9453 5.9922 6.0352 1.4062 0.58203 3.0195-0.10547 3.5742-1.5234 0.5625-1.3984-0.12109-2.9883-1.5195-3.543-0.72266-0.28906-2.3242-1.7734-3.1836-3.4609s-0.93359-3.293-0.60547-3.8945c0.3125-0.57422 1.4531-1.2539 3.2578-1.4141 1.8008-0.16016 3.9805 0.29688 4.9492 0.80859 1.3242 0.69141 2.957 0.1875 3.6602-1.1289 0.71875-1.332 0.21094-2.9961-1.1289-3.7031-1.7227-0.90625-3.7422-1.3828-5.8438-1.457zm41.641 0.57422c-1.4336-0.003906-2.9766 0.17578-4.5 0.72266-1.5273 0.54688-3.082 1.5977-4.0664 3.2578-0.98438 1.6562-1.2695 3.7305-0.92578 6.0352 0.67578 4.5469 3.8047 7.4141 7.0039 8.0039 3.1992 0.58594 6.1914-0.34375 8.4062-1.3203 1.3594-0.62109 1.9688-2.2227 1.3594-3.5898-0.60156-1.3711-2.1992-2-3.5742-1.4023-1.5742 0.69141-3.8438 1.2188-5.2266 0.96484-1.3828-0.25-2.1406-0.53516-2.5742-3.457-0.21094-1.4297-0.019532-2.082 0.20312-2.457 0.22266-0.37891 0.56641-0.64062 1.2461-0.88281 1.3594-0.48828 3.8906-0.44141 5.5859-0.16016 1.4766 0.25 2.8789-0.73828 3.1406-2.2148 0.24609-1.4922-0.76562-2.8984-2.2578-3.1367-1.0703-0.17969-2.3867-0.36328-3.8203-0.36328zm302.28 1.5625c4.4648 0.47266 9.0117 1.3438 11.973 2.957 6.9961 3.8203 12.863 10.699 15.484 18.23 2.1875 6.2852 2.4102 14.066-0.69141 19.953-2.2188 4.2109-4.1211 5.5078-9.5781 8.2461-0.035157 0.003906-0.070313 0.007813-0.10938 0.011719l-23.207 3.2578c-0.58984-1.1602-1.8086-3.5078-3.8203-8.0039-2.4414-5.4609-5.1094-12.172-5.9922-16.57-0.42578-2.1289-0.27734-6.2891-0.36328-10.055-0.039062-1.8828-0.13281-3.6992-0.5625-5.3945-0.43359-1.6992-1.3516-3.6562-3.457-4.457l-5.9922-2.332zm-385.31 4.3867c-1.0859 0.054687-2.1914 0.22656-3.2812 0.53125-2.1719 0.60547-4.4219 1.8281-5.6719 4.1406-1.2188 2.2539-1.4297 4.8867-0.88281 7.3945 0.54688 2.5078 2.0234 5.1133 4.832 6.2344 1.3945 0.55469 2.9766-0.12891 3.5312-1.5234 0.56641-1.3867-0.097656-2.9688-1.4805-3.543-0.62891-0.25391-1.2461-1.0234-1.5312-2.332-0.28516-1.3086-0.070312-2.9023 0.32031-3.6172 0.30469-0.55859 1.0664-1.1367 2.332-1.4883 1.2617-0.35156 2.9023-0.44141 4.1484-0.24609 1.4766 0.22266 2.8555-0.78125 3.0977-2.2578 0.24219-1.4883-0.76953-2.8906-2.2578-3.1289-1.0117-0.16016-2.0781-0.22656-3.1602-0.17188zm349.41 3.6055c4.3633 1.2227 12.336 2.8867 13.77 6.0117 0.375 0.81641 0.35547 2.418 0.39453 4.1406 0.078125 3.4414-0.24219 7.5469 0.44531 10.98 1.0781 5.3555 3.8438 12.16 6.3516 17.773 2.4688 5.5156 4.6289 9.6641 4.7031 9.8125l5.3086 15.93c-31.965 6.25-47.137 10.422-74.48 16.293-24.004 5.1523-73.289 15.93-73.289 15.93-0.09375 0.019531-0.1875 0.042968-0.27734 0.074218-3.3438-0.82422-7.1836-1.3711-11.664-1.6406l0.33984-5.8633c0.14062-0.39062 0.1875-0.8125 0.13672-1.2227-0.011719-0.10938-0.03125-0.21484-0.054688-0.32031l0.58594-10.023c3.3516 0.066406 11.746 0.19922 17.527-0.39453 5.9805-0.61328 13.742-2.3555 18.504-3.4688-0.20703 1.5859-0.18359 3.1328-0.085938 4.4805 0.20312 2.7852 0.80859 4.9375 0.80859 4.9375 0.011719 0.058594 0.027344 0.11328 0.042969 0.17188 0.003906 0.011719 0.14062 0.36328 0.23438 0.51953s0.21484 0.26953 0.32031 0.39453c0.21094 0.24609 0.44922 0.42969 0.64844 0.5625 0.40234 0.26562 0.71875 0.36719 1 0.44531 0.55859 0.15625 0.95312 0.1875 1.4141 0.19922 0.92188 0.03125 1.9531-0.058594 3.2148-0.19922 2.5234-0.28516 5.9453-0.83594 9.9727-1.6055 8.0547-1.543 18.602-3.8828 29.125-6.3203 20.949-4.8555 41.551-10.082 41.746-10.133 2.2266-0.39063 4.1797-1.4102 5.3828-3.0547 1.207-1.6445 1.5742-3.6602 1.4492-5.5977-0.23828-3.8711-2.2266-7.9102-5.0977-11.773-5.7383-7.7305-15.328-15.078-25.25-13.836h-0.11719l-25.84 4.4688c-3.0664-5.7852-8.6094-10.562-15.109-13.844-5.8828-2.9688-13.023-5.293-20.25-6.9062zm-292.27 3.0781c-0.58594 0.023437-1.1523 0.23828-1.6055 0.60547-2.3398 1.832-3.375 4.5938-3.6602 7.3945s0.20312 5.8633 2.2969 8.1289c1.8359 1.9844 4.4141 2.7188 6.918 2.6914 2.5039-0.023437 5.0781-0.84375 7.0352-2.7344 1.0938-1.043 1.1328-2.7734 0.085937-3.8633-1.0547-1.082-2.7852-1.1016-3.8633-0.042969-0.70703 0.68359-2.043 1.1562-3.3398 1.1719-1.3008 0.011719-2.4062-0.44531-2.8516-0.92578-0.52344-0.56641-1.0234-2.1758-0.85156-3.8633 0.17188-1.6875 1.0078-3.2578 1.5742-3.7031 1.1875-0.92188 1.4023-2.6328 0.48047-3.8203-0.53125-0.67969-1.3516-1.0664-2.2148-1.043zm-36.074 5.2227c-0.16016 0.015625-0.32031 0.042969-0.48047 0.085937-1.9844 0.49609-4.0352 1.4414-5.8008 2.8516s-3.3711 3.418-3.6172 6.0352c-0.24219 2.5508 0.61328 5.0273 2.0977 7.1211s3.8906 3.9258 6.918 3.8633c1.4961-0.042968 2.6797-1.2852 2.6484-2.7812-0.039062-1.4961-1.2812-2.6797-2.7773-2.6484-0.67969 0.015625-1.5547-0.48438-2.332-1.5742-0.77344-1.0938-1.2031-2.6914-1.125-3.5039 0.058594-0.63281 0.54688-1.4258 1.5742-2.2422 1.0234-0.82031 2.5117-1.5039 3.7344-1.8125 1.4766-0.36328 2.3672-1.8672 1.9805-3.3398-0.32031-1.2773-1.5078-2.1406-2.8203-2.0547zm116.62 0.11719 14.621 10.906c0.57422 0.43359 1.2969 0.62109 2.0117 0.51953l37.684-5.7891 51.879 5.9492c0.18359 0.046875 0.375 0.078125 0.5625 0.085938 10.859 0.32812 25.109 3.7695 34.672 8.5977 6.3438 3.2031 11.422 8.0859 13.484 13.078 1.8398 6.1992 2.9492 10.137 1.3633 14.109-1.0273 2.5742-2.6875 4.4219-5.918 5.2773-15.125 4.0195-26.859 6.4688-26.859 6.4688-0.12891 0.027343-0.25 0.0625-0.37109 0.10937-0.49609 0.11719-15.004 3.5859-22.156 4.3203-6.0586 0.62109-19.066 0.32422-19.348 0.32031l-63.828-10.664c-10.375-1.7344-16.141-3.2109-20.711-8.7969-5.3281-6.5039-5.5156-16.129-5.5156-26.594 0-0.67969-0.25781-1.3398-0.72266-1.8398l-10.918-11.844 17.559-3.3828c0.94141-0.13281 1.7539-0.44531 2.5117-0.82812zm-153.19 11.176c-0.078125 0-0.15625 0.003906-0.23438 0.011718-0.80469 0.09375-1.5234 0.53516-1.9688 1.2148-1.1211 1.7109-2 3.8008-2.3398 6.0352-0.33984 2.2344-0.14844 4.7852 1.4492 6.875 1.5547 2.0391 3.8555 3.2891 6.3633 3.8203 2.5117 0.53125 5.4961 0.25 7.6719-1.8516 1.0938-1.043 1.1328-2.7734 0.085938-3.8633-1.0469-1.0977-2.7773-1.1289-3.8633-0.082031-0.48828 0.47266-1.4688 0.71484-2.7773 0.4375-1.3125-0.27734-2.6367-1.1602-3.1289-1.8086-0.38672-0.50391-0.60156-1.4375-0.40625-2.7344 0.19922-1.2969 0.80078-2.8086 1.4922-3.8633 0.79297-1.2578 0.43359-2.918-0.80859-3.7344-0.45703-0.30469-0.98828-0.46094-1.5352-0.45703zm338.82 18.992h0.042968c6.5859-0.80078 15.227 5.0859 20.145 11.707 2.4609 3.3164 3.9297 6.7656 4.0664 8.8555 0.066406 1.043-0.16406 1.6406-0.4375 2.0117-0.27344 0.37109-0.67969 0.74609-1.8945 0.95703-0.066406 0.011719-0.13672 0.027344-0.19922 0.042969 0 0-20.883 5.2695-41.863 10.133-10.492 2.4297-21.008 4.7656-28.926 6.2773-3.957 0.75781-7.2812 1.3086-9.5352 1.5625-0.62109 0.070313-0.88281 0.058594-1.3203 0.085938-0.14453-0.69531-0.23828-0.91016-0.32812-2.1289-0.14063-1.9023 0.24219-3.9258 0.89453-5.5117 1.3242-0.28516 11.16-2.3867 25.496-6.1953 4.8242-1.2812 8.0352-4.6523 9.5664-8.4922 1.9883-4.9844 0.35938-9.793-1.0859-14.879zm63.734 30.488c1.9453 0.019532 3.5156 0.66797 5 1.7656 1.9805 1.4648 3.6992 3.8359 5.0352 6.3945 1.7148 3.2891 2.5742 6.1875 3.0977 8.2695l-76.875 19.559c-3.2383-8.707-7.832-15.883-10.844-20.039 24.734-5.4336 40.43-9.5742 72.512-15.75 0.74219-0.14062 1.4258-0.20703 2.0742-0.19922zm-80.449 17.27c2.6641 3.4336 8.8438 11.949 12.418 22.828 0.019532 0.054687 0.039063 0.10938 0.0625 0.16016 3.3281 11.707 6.0508 25.594 6.2461 38.457 0.14453 9.4141-3.5859 28.227-3.9492 30.031l-51.367 13.727c6.4492-15.625 7.8711-31.242 4.918-46.781-2.6406-13.898-10.906-26.91-21.559-36.129-0.09375-0.097656-0.19922-0.19141-0.30859-0.27734-0.48828-0.41797-0.95703-0.875-1.457-1.2773-3.2617-2.625-6.3555-4.8281-9.7812-6.6172 8.7656-1.9258 43.312-9.5117 64.777-14.121zm97.105 3.9258 1.9062 0.27734 0.96875 62.348-4.2773 3.3008-75.078 20.059c0.99219-4.9102 3.7266-18.898 3.5742-28.551-0.19531-12.707-2.9805-25.801-6.1094-37.32zm-188.3 1.4141-0.23438 4.0117-19.305 4.6523c0.18359-0.33203 0.33203-0.67578 0.59766-0.98828 0.80859-0.96484 2.1172-1.875 3.5859-2.9375 3.8945-2.8086 9.9648-3.9883 15.355-4.7344zm2.543 8.9609c2.3711 0.082031 4.457 0.23828 6.418 0.4375l-4 0.96875c-1.4688 0.35156-2.3711 1.832-2.0117 3.3008 0.35156 1.4648 1.8242 2.3633 3.2891 2.0117l14.664-3.5664c3.0938 1.2539 5.8516 3.0391 8.6719 5.1289l-11.227 2.0234c-1.4727 0.28125-2.4414 1.6953-2.1719 3.1719 0.25781 1.4766 1.6641 2.4648 3.1406 2.2148l15.93-2.8633c2.2461 2.0234 4.3555 4.2344 6.3203 6.6094l-14.652 2.9258c-1.4805 0.30078-2.4336 1.7461-2.1289 3.2227 0.30078 1.457 1.7109 2.4023 3.1719 2.1289l17.25-3.4375c1.5859 2.332 3.0234 4.75 4.2656 7.2578l-15.762 3.5859c-1.4648 0.33203-2.3867 1.7891-2.0547 3.2578 0.33594 1.4609 1.793 2.375 3.2578 2.043l16.77-3.8086c1.0742 2.8164 1.9531 5.6719 2.5 8.5547 0.011719 0.0625 0.019531 0.12891 0.035156 0.19141l-18.09 4.1914c-1.4727 0.33203-2.3906 1.7969-2.0547 3.2656 0.33594 1.4609 1.793 2.375 3.2578 2.043l17.676-4.0859c0.35937 3.0547 0.52734 6.1055 0.51172 9.1523l-17.984 3.7031c-1.4688 0.3125-2.4062 1.7539-2.0977 3.2227 0.30078 1.4805 1.7461 2.4336 3.2227 2.1289l16.645-3.4258c-0.23828 2.8477-0.69531 5.7031-1.2773 8.5547l-15.855 3.6406c-1.4805 0.33594-2.4023 1.8203-2.043 3.3008 0.35156 1.4492 1.8047 2.3438 3.2578 2.0117l13.195-3.0234c-0.77344 2.6719-1.7383 5.3477-2.832 8.0352l-16.121 4.1602c-1.4688 0.37109-2.3516 1.8672-1.9688 3.332 0.38281 1.4609 1.8828 2.3281 3.3398 1.9375l11.867-3.0664c-0.73047 1.4609-1.4297 2.918-2.2578 4.3828l-22.316 6.7461c8.8125-17.453 13.648-38.875 7.7148-57.625-6.0664-19.168-15.637-34.465-40.078-44.918zm-126.5 2.6484c0.37891 0.042969 36.219 4.2031 53.453 8.2891 20.57 4.8789 60.043 19.336 61.297 19.793l9.5352 18.379c0.046875 0.58594 2.9492 34.625 2.8516 51.602-0.089844 15.594-3.0664 46.277-3.1719 47.375l-7.8438 8.4492-22.836 8.5117 3.9258-4.2461c0.45703-0.49219 0.71484-1.1367 0.72266-1.8086l1.4492-106.02c0.011719-0.49609-0.11328-0.98438-0.36328-1.4141l-10.219-17.965c-0.36719-0.66406-0.98828-1.1445-1.7227-1.332l-110.54-26.664zm104.66 2.5859c0.11328 0.0625 0.23047 0.11719 0.35156 0.16016 28.574 10 37.387 24.023 43.77 44.195 5.8086 18.355-0.007812 40.938-9.875 58.188l-6.6406 2.0117c0.066406-1.5508 0.12891-3.0352 0.17188-4.4688l4.875-1.0625c1.4883-0.3125 2.4336-1.7852 2.0977-3.2656-0.28516-1.2734-1.4297-2.1641-2.7344-2.1289-0.17578 0.011719-0.35156 0.039063-0.51953 0.085938l-3.5664 0.77734c0-2.1445-0.11719-4.8516-0.19141-7.3516l7.9805-1.7578c1.457-0.32031 2.3867-1.7539 2.0859-3.2148-0.26953-1.3047-1.4453-2.2227-2.7773-2.1719-0.16016 0.011718-0.32031 0.035156-0.48047 0.074218l-6.9609 1.5234c-0.10938-2.4688-0.23047-4.7656-0.37109-7.3008l11.715-2.3828c1.4766-0.30078 2.4297-1.7383 2.1289-3.2148-0.26562-1.2734-1.3906-2.1836-2.6914-2.1719-0.17578-0.003907-0.34766 0.011718-0.51953 0.042968l-10.961 2.2227c-0.21484-3.4609-0.32031-5.4961-0.54297-8.5859l14.152-2.8516c1.4648-0.29297 2.418-1.7148 2.1406-3.1836-0.25-1.2852-1.3828-2.2109-2.6914-2.2031-0.17969 0.007812-0.35938 0.03125-0.53125 0.074218l-13.492 2.6914c-0.30078-3.8672-0.62891-8.3594-0.71094-9.3438l12.441-2.4375c1.4766-0.28125 2.4492-1.7031 2.1719-3.1836-0.24609-1.2891-1.3789-2.2227-2.6914-2.2148-0.17578-0.003906-0.34766 0.011719-0.51953 0.042969l-12.801 2.543-3.7891-7.3125 10.633-2.1484c1.4805-0.29297 2.4375-1.7344 2.1406-3.2148-0.26562-1.2734-1.3906-2.1836-2.6914-2.1719-0.16406-0.003906-0.32812 0.007813-0.48828 0.03125l-12.195 2.4688-3-5.8008c-0.30078-0.60938-0.82422-1.0859-1.457-1.332 0 0-2.5664-0.90234-2.8633-1.0117l8.7812-2.043c1.4492-0.35156 2.3438-1.8047 2.0117-3.2578-0.28125-1.293-1.4531-2.1953-2.7773-2.1406-0.16016 0.015625-0.32031 0.042969-0.48047 0.085937l-17.102 3.9805c-4.2461-1.5117-5.1797-1.8867-11.473-4.0234l11.355-2.6484c1.4688-0.35156 2.3711-1.832 2.0117-3.3008-0.30078-1.2773-1.4688-2.1562-2.7773-2.0977-0.16016 0.015625-0.32031 0.042969-0.48047 0.085937l-19.664 4.5859c-0.13281 0.03125-0.25781 0.066406-0.38281 0.11719-2.3789-0.77734-4.668-1.543-7.0547-2.2969zm-142.23 2.5664 122.23 29.488 8.9297 15.77-73.715-15.762-53.102-20.965c-0.37891-0.15625-0.79297-0.22656-1.2031-0.19922-1.043 0.082031-1.9492 0.75-2.332 1.7227-0.55469 1.4102 0.14844 3 1.5625 3.543l53.082 20.977 0.44531 52.379v0.0625l-51.156 23.996c-1.3516 0.64844-1.9258 2.2617-1.2891 3.6172 0.64844 1.3516 2.2617 1.9258 3.6172 1.2891l53.102-24.934 70.375 21.762-0.51953 37.32-9.7695 10.609-115.6-35.629-11.695-18.941-0.48828-96.977zm346.34 53.973c-0.10938 5.8047 0.011718 11.523-2.2969 15.855-1.8672 3.5039-4.2422 5.8633-8.6094 7.8438l-103.72 33.98h-0.042969c-2.3711 0.80469-5.5703 1.7422-8.8203 2.4062 0.085938-1.4609 0.16016-2.4648 0.21484-4.5742 0.089844-3.5273 0.039062-7.4961-0.95703-10.898-1.0312-3.5195-2.8594-7.168-5.043-10.09zm-134.11 37.375c1.7344 2.3555 3.8008 5.9492 4.6289 8.7695 0.66797 2.2812 0.85156 5.9102 0.76562 9.2031-0.058594 2.3125-0.19141 3.8633-0.28906 5.4805-0.24609 0.011718-0.51562 0.070312-0.75391 0.074218-5.7031 0.11328-13.672-2.1523-17.496-3.3398-0.027344-0.015624-0.058594-0.03125-0.085938-0.042968l-21.551-6.1406 32.531-9.7891 0.51953-0.91406c0.63281-1.0977 1.1445-2.2031 1.7227-3.3008z"/>
</svg>
