<?xml version="1.0" encoding="utf-8"?>
<!-- Generator: Adobe Illustrator 27.0.0, SVG Export Plug-In . SVG Version: 6.00 Build 0)  -->
<svg version="1.1"
	 id="svg2" xmlns:cc="http://creativecommons.org/ns#" xmlns:rdf="http://www.w3.org/1999/02/22-rdf-syntax-ns#" xmlns:dc="http://purl.org/dc/elements/1.1/"
	 xmlns="http://www.w3.org/2000/svg" xmlns:xlink="http://www.w3.org/1999/xlink" x="0px" y="0px" viewBox="0 0 143.8 142.5"
	 style="enable-background:new 0 0 143.8 142.5;" xml:space="preserve">
<style type="text/css">
	.st0{fill:#F93208;}
	.st1{fill:#FFFFFF;}
</style>
<path id="path3509" class="st0" d="M122.2,126.3v4.7h1.4v-4.7l1.5,0V125l-4.4,0l0,1.3L122.2,126.3z"/>
<g id="g3714">
	<path id="path3511" class="st0" d="M127.5,125l-1.3,0v6h1.4v-3.2l1.8,2.5v-2.4L127.5,125z M131.2,125l-1.9,2.8l0,2.4l1.8-2.5v3.2
		h1.4v-6L131.2,125z"/>
</g>
<g>
	<path class="st1" d="M48.7,56.3l-2.9,0l0.1,1.9c0.1,1,0.1,4.1,0.1,6.8v4.9l3.3-0.1c1.8-0.1,3.9-0.3,4.7-0.4l0,0
		c3.9-0.8,5.9-2.7,6.1-5.7c0.2-2.1-0.4-3.6-1.7-4.9C56.7,56.9,54.2,56.3,48.7,56.3z"/>
	<path class="st1" d="M65.1,18.4c0.6-6.6,3.6-8.4,7-9C67,1,51.4,5.3,46.4,17.1C46.3,17.5,37,2.9,37,2.9l0,0L28.4,10l11.7,10.1
		c-14.8-5.6-27.2,7.9-28.2,13.1c7.8-1.8,12.6-2.4,18.8-1.9c-39.6,26.1-28,73.9-8.1,90.5c32.5,25.9,77.4,18,100.7-7.4
		C157.3,78,133.3,6.5,65.1,18.4z M111.5,73.3h-7.5v21.2v21.3h-8.2l-8.6-0.1c0-14.7,0-27.2,0-42.3l0,0L80,73.4h-4.6
		c-1.4,2.6-3.4,4.8-5.9,6.4c-1.6,1-1.7,1.1-1.4,1.5c0.7,1.1,11.9,20.5,11.9,20.6c0,0.1-4.3,0.1-9.5,0.1h-9.5l-5.5-9.3
		c-3-5.1-5.6-9.5-5.8-9.7c-0.2-0.3-0.7-0.4-1.9-0.5l-1.7-0.1l0.1,9.8l0.1,9.8l-4,0c-2.2,0-6.1-0.1-8.6-0.1l0,0l-4.6-0.1V72.6V43.4
		h13.9c15,0,16.3,0.1,20,1.1c6,1.7,10.5,5.5,13,10.7c0.3,0.6,0.5,1.2,0.7,1.7l19,0.1c12.8,0.1,23.8,0,23.8,0l0.2,16.4L111.5,73.3z"
		/>
</g>
</svg>
